<svg width="758" height="232" fill="none" xmlns="http://www.w3.org/2000/svg"><path d="M90.468 104.347c0 3.974-.874 7.874-2.622 11.67a72.615 72.615 0 0 1-7.357 12.5 5.66 5.66 0 0 1-.4.485l3.447 4.211c.24.292.266.701.067 1.021-.091.146-2.267 3.61-5.747 6.542-3.492 2.942-6.921 4.231-7.065 4.285a.919.919 0 0 1-.919-.166l-2.976-2.588a.911.911 0 0 1-.18-.213c-2.618 1.323-7.491 3.099-15.515 3.74-7.105.567-12.93-.318-17.316-2.628-.235-.123-.62-.306-1.034-.504-.71-.339-1.445-.688-1.847-.93-.395-.238-.85-.496-1.356-.783-3.92-2.228-11.215-6.375-16.775-15.849-4.712-8.029-5.202-12.025-5.635-15.549-.257-2.097-.48-3.907-1.589-6.344-2.82-6.2-5.13-7.439-5.152-7.45a.913.913 0 0 1-.468-.58.879.879 0 0 1 .125-.722c.457-.65 2.853-3.892 5.168-3.927 1.123-.018 1.89.365 2.451.645.575.286.589.276.753.155.175-.13.272-.366.416-.741.342-.896.859-2.248 3.517-2.31 2.117-.051 3.3 1.047 4.157 1.941.896-1.767 3.343-6.298 6.548-9.892 2.07-2.321 4.49-4.142 6.155-5.261 1.27-.854 2.108-1.368 2.682-1.662-.631-1.145-.902-1.924-1.113-2.528-.247-.71-.384-1.102-.963-1.716-1.928-2.043-.413-5.382-.129-5.786a.973.973 0 0 1 .692-.406c.519-.056.84.235 1.422.764.968.88 2.982 2.709 6.4 3.588 3.064.787 6.624.623 9.764.478 1.983-.092 3.855-.178 5.336-.003 4.839.574 14.909 1.769 23.186 9.07 3.959 3.493 7.416 7.875 9.84 12.407.061.08.107.167.138.26a36.991 36.991 0 0 1 1.565 3.368c1.553 3.852 2.329 7.663 2.329 11.408Zm-2.318 4.882c1.265-6.643-.251-13.11-3.15-18.747-.809-.39-3.517-1.521-7.612-1.437-4.825.099-6.35.92-6.364.93a.923.923 0 0 1-1.232-.313.872.872 0 0 1 .286-1.204c.18-.11 1.9-1.08 7.272-1.191 2.665-.054 4.796.356 6.296.801-2.326-3.826-5.247-7.184-8.258-9.84a30.453 30.453 0 0 0-4.85-3.49c-.81.326-3.148 1.059-7.075.66-4.572-.462-7.066-.633-7.09-.634a.902.902 0 0 1-.841-.948.899.899 0 0 1 .964-.826c.026.002 2.545.174 7.153.64 2.014.204 3.543.081 4.596-.105-5.915-2.843-11.75-3.534-15.052-3.926-1.33-.157-3.128-.075-5.033.013-3.27.151-6.977.322-10.306-.534-3.56-.915-5.742-2.718-6.903-3.76-.22.829-.336 1.997.302 2.672.84.891 1.075 1.567 1.348 2.348.257.74.577 1.659 1.584 3.259.929 1.476 2.147 1.512 4.058 1.447 1.264-.044 2.697-.092 3.963.633 2.214 1.269 1.705 2.813 1.371 3.835-.182.553-.34 1.034-.222 1.535.391.047 1.487-.281 2.301-.525 1.872-.561 4.435-1.329 7.022-.913 1.445.232 2.329.658 2.781 1.34.53.797.308 1.644.13 2.325-.235.895-.214 1.069.166 1.326 1.448.984 2.77 1.258 4.6 1.639.772.16 1.647.343 2.63.601 1.537.404 2.611 1.18 3.194 2.306.885 1.712.642 4.177-.768 7.755a21.432 21.432 0 0 0-1.48 7.535v.028c0 .772.368 1.47.941 2.237 5.006 5.132 7.831 10.784 8.088 16.354.05 1.076.008 2.21-.1 3.358.32 1.251 1.305 2.005 2.246 2.313 1.17.382 2.814.256 3.914-1.248a70.76 70.76 0 0 0 7.178-12.194 26.71 26.71 0 0 0 1.434-3.87c-.436-.568-2.556-3.195-6.215-5.617-.431.187-3.043 1.281-5.356 1.413-1.154.066-2.637.104-3.153-.086l.637-1.664s-.02-.011-.075-.024c.02.005.533.111 2.486-.001 1.214-.069 2.58-.47 3.54-.806-4.769-2.703-6.468-3.1-6.485-3.104a.893.893 0 0 1-.69-1.054.9.9 0 0 1 1.06-.686c.197.04 2.075.47 7.406 3.525 3.615 2.071 6.077 4.479 7.363 5.919Zm-17.505 33.963a25.736 25.736 0 0 0 6.033-3.767c2.493-2.1 4.312-4.553 5.036-5.602l-2.723-3.327c-.952 1.219-2.5 3.174-3.591 4.422-2.884 3.299-6.203 5.675-6.343 5.775a.927.927 0 0 1-.18.1c-.139.103-.321.232-.552.382l2.32 2.017Zm-.186-5.915c1.082-.937 2.374-2.151 3.568-3.517.73-.836 1.693-2.025 2.53-3.079a5.485 5.485 0 0 1-2.024-.268 5.342 5.342 0 0 1-2.045-1.214c-.523 3.064-1.362 6.007-2.029 8.078Zm-2.623 2.057c.453-1.217 2.625-7.269 3.196-12.838a5.374 5.374 0 0 1-.088-1.076c.032-1.718-.092-3.36-.374-4.877-1.037-5.575-4.142-9.207-5.998-11.378-.328-.382-.62-.725-.864-1.03a28.097 28.097 0 0 1-.229-.293 44.41 44.41 0 0 0-5.14-4.453c-7.566-5.64-11.185-5.29-12.924-5.121l-.253.023c-.45.04-1.264.288-2.126.55-2.241.684-5.31 1.618-7.575.735-2.09-.815-2.278-2.891-2.46-4.899-.13-1.44-.266-2.929-1.049-4.09-1.679-2.487-5.998-1.233-8.285-.1-.904.447-1.584.999-2.184 1.485-1.027.835-2.09 1.697-3.692 1.302-1.024-.252-1.685-.949-2.325-1.622-.811-.855-1.513-1.593-2.963-1.559-1.437.034-1.59.434-1.867 1.159-.185.486-.416 1.09-1.023 1.537-1.078.797-1.991.342-2.658.01-.478-.239-.93-.464-1.604-.453-.847.012-2.22 1.3-3.174 2.46 1.077.904 2.987 3.016 5.125 7.715 1.22 2.682 1.47 4.71 1.733 6.856.411 3.357.878 7.16 5.405 14.875 5.318 9.062 12.076 12.903 16.115 15.197.519.295.987.562 1.394.806.326.196 1.083.557 1.692.846.441.211.85.406 1.1.537 3.775 1.99 8.767 2.835 14.854 2.519-4.56-1.331-11.342-4.049-17.643-9.429-10.564-9.018-16.329-26.538-16.57-27.28a.886.886 0 0 1 .589-1.116.907.907 0 0 1 1.136.577c.055.168 5.297 16.095 14.558 25.13.587-1.751 1.763-5.817 1.105-8.645-.27-1.162-.527-2.167-.754-3.054-.56-2.194-.966-3.779-1.04-5.645v-.035c0-.475.382-.869.869-.888.5-.019.92.363.94.854.063 1.601.416 3.046.91 4.984l1.692-1.732a.917.917 0 0 1 1.28-.026c.36.341.372.903.026 1.257l-2.482 2.541c.105.425.213.874.323 1.35.897 3.868-1.026 9.315-1.42 10.365l.025.021c3.381 2.887 6.94 4.98 10.188 6.489-1.313-2.37-3.006-6.24-1.755-8.703.83-1.636 2.325-2.881 3.77-4.085 1.581-1.317 3.074-2.56 3.635-4.189a.909.909 0 0 1 1.147-.557.885.885 0 0 1 .567 1.127c-.722 2.096-2.479 3.559-4.178 4.975-.617.514-1.219 1.015-1.755 1.531 1.176.373 3.4.995 5.215 1.015 2.585.028 6.245-1.24 6.282-1.252a.909.909 0 0 1 1.156.539.885.885 0 0 1-.55 1.136c-.16.057-3.998 1.388-6.908 1.356-2.555-.028-5.638-1.048-6.451-1.334a5.56 5.56 0 0 0-.31.531c-1.126 2.219 1.762 7.315 2.863 8.925a.877.877 0 0 1 .1.191c5.15 2.008 8.968 2.496 9.035 2.504a.223.223 0 0 0 .025.004c8.19-1.226 11.854-3.678 12.62-4.255Zm-5.71-35.206a23.237 23.237 0 0 1 1.597-7.868c1.178-2.99 1.46-5.113.841-6.308-.344-.666-1.014-1.122-2.047-1.394a47.287 47.287 0 0 0-2.536-.58c-1.882-.39-3.507-.729-5.254-1.915-1.476-1.002-1.11-2.398-.89-3.232.093-.361.201-.77.107-.91-.038-.057-.292-.354-1.56-.558-2.17-.349-4.404.321-6.2.86-1.666.499-2.87.86-3.769.367a1.632 1.632 0 0 1-.798-1.044c-.273-1.023.01-1.887.238-2.58.318-.973.396-1.205-.561-1.754-.814-.466-1.87-.43-2.988-.392-1.72.059-3.834.131-5.35-1.843-1.192.646-5.251 2.996-8.431 6.561-3.346 3.752-5.904 8.732-6.502 9.94.068.03.137.054.208.072.659.162 1.052-.1 2.1-.949.639-.52 1.436-1.166 2.52-1.703 3.504-1.734 8.384-2.59 10.609.706 1.037 1.537 1.2 3.332 1.343 4.915.173 1.912.32 3.012 1.326 3.404 1.67.652 4.388-.175 6.371-.78.998-.304 1.86-.566 2.5-.623l.237-.022c1.969-.191 6.064-.588 14.197 5.474.943.704 1.84 1.423 2.692 2.156ZM144.342 190.653c-.001-3.974.874-7.874 2.621-11.67a72.611 72.611 0 0 1 7.358-12.5 5.53 5.53 0 0 1 .399-.485l-3.446-4.211a.874.874 0 0 1-.067-1.021c.091-.146 2.267-3.61 5.747-6.542 3.492-2.942 6.921-4.231 7.065-4.285a.917.917 0 0 1 .918.166l2.977 2.588a.918.918 0 0 1 .179.213c2.619-1.323 7.492-3.099 15.515-3.74 7.105-.567 12.931.318 17.317 2.628.235.123.619.306 1.034.504.71.339 1.445.688 1.846.93.396.238.851.496 1.356.783 3.92 2.228 11.216 6.375 16.776 15.849 4.712 8.029 5.202 12.025 5.634 15.549.257 2.097.48 3.907 1.589 6.344 2.821 6.2 5.13 7.439 5.153 7.451.23.118.405.331.468.579a.882.882 0 0 1-.125.723c-.457.649-2.853 3.891-5.169 3.926-1.122.018-1.89-.365-2.45-.645-.575-.286-.589-.276-.753-.155-.176.13-.273.366-.416.741-.342.896-.859 2.248-3.517 2.311-2.118.05-3.3-1.048-4.157-1.942-.897 1.767-3.343 6.298-6.548 9.892-2.07 2.321-4.491 4.142-6.156 5.261-1.27.854-2.108 1.368-2.681 1.662a14.682 14.682 0 0 1 1.112 2.529c.248.709.384 1.101.964 1.715 1.927 2.043.412 5.382.128 5.786a.97.97 0 0 1-.692.406c-.518.057-.839-.235-1.421-.764-.968-.879-2.983-2.709-6.401-3.588-3.063-.787-6.623-.623-9.763-.478-1.983.092-3.856.178-5.336.003-4.839-.574-14.909-1.769-23.187-9.071-3.958-3.492-7.416-7.874-9.84-12.406a.892.892 0 0 1-.138-.26 37.322 37.322 0 0 1-1.564-3.368c-1.553-3.852-2.329-7.663-2.329-11.408Zm2.318-4.882c-1.266 6.643.251 13.11 3.149 18.747.809.39 3.518 1.521 7.612 1.437 4.826-.099 6.35-.921 6.364-.929a.924.924 0 0 1 1.233.311.874.874 0 0 1-.287 1.205c-.179.11-1.899 1.081-7.272 1.191-2.665.054-4.796-.356-6.296-.801 2.327 3.826 5.248 7.184 8.258 9.84a30.447 30.447 0 0 0 4.851 3.489c.809-.325 3.148-1.058 7.074-.66 4.573.463 7.067.634 7.091.635.499.034.87.465.841.948a.9.9 0 0 1-.965.826c-.025-.002-2.545-.174-7.153-.64-2.014-.204-3.543-.081-4.595.105 5.915 2.843 11.749 3.534 15.051 3.926 1.33.157 3.129.075 5.034-.013 3.27-.151 6.976-.322 10.306.534 3.56.915 5.742 2.718 6.903 3.759.219-.828.335-1.996-.302-2.671-.841-.891-1.076-1.566-1.348-2.348-.257-.74-.578-1.659-1.584-3.259-.929-1.476-2.147-1.512-4.058-1.447-1.264.044-2.697.092-3.963-.633-2.215-1.269-1.706-2.813-1.372-3.835.182-.553.341-1.034.222-1.535-.391-.047-1.486.281-2.301.525-1.871.561-4.434 1.329-7.021.913-1.445-.232-2.329-.658-2.782-1.341-.529-.796-.308-1.643-.129-2.324.235-.895.213-1.069-.166-1.326-1.449-.984-2.771-1.258-4.601-1.639a50.025 50.025 0 0 1-2.63-.601c-1.536-.404-2.61-1.18-3.193-2.306-.886-1.712-.642-4.177.767-7.756a21.403 21.403 0 0 0 1.48-7.534v-.028c0-.772-.367-1.47-.941-2.237-5.006-5.132-7.831-10.784-8.087-16.354-.05-1.076-.009-2.21.099-3.358-.32-1.251-1.304-2.005-2.245-2.313-1.171-.382-2.814-.256-3.914 1.248a70.768 70.768 0 0 0-7.178 12.194 26.771 26.771 0 0 0-1.435 3.87c.437.568 2.557 3.195 6.215 5.617.432-.187 3.043-1.281 5.357-1.413 1.153-.066 2.637-.104 3.153.086l-.637 1.664s.02.011.074.024c-.02-.005-.532-.111-2.485.001-1.214.069-2.581.47-3.54.806 4.768 2.703 6.467 3.1 6.484 3.104a.894.894 0 0 1 .69 1.054.9.9 0 0 1-1.059.686c-.197-.039-2.076-.47-7.406-3.525-3.615-2.071-6.077-4.479-7.363-5.919Zm17.504-33.963a25.738 25.738 0 0 0-6.032 3.767c-2.494 2.1-4.312 4.553-5.036 5.602l2.723 3.327c.952-1.219 2.499-3.174 3.591-4.422 2.883-3.299 6.202-5.675 6.343-5.775a.912.912 0 0 1 .18-.1c.138-.103.321-.232.551-.382l-2.32-2.017Zm.186 5.915c-1.081.937-2.374 2.151-3.567 3.517-.731.836-1.694 2.025-2.53 3.079a5.483 5.483 0 0 1 2.023.268 5.34 5.34 0 0 1 2.046 1.214c.522-3.064 1.362-6.007 2.028-8.078Zm2.624-2.057c-.454 1.217-2.625 7.269-3.196 12.838.065.347.094.708.087 1.076-.031 1.718.093 3.36.374 4.877 1.037 5.575 4.143 9.207 5.999 11.378.327.382.62.725.863 1.03.077.097.154.195.229.293a44.486 44.486 0 0 0 5.14 4.453c7.567 5.641 11.186 5.29 12.924 5.121l.253-.024c.45-.039 1.265-.287 2.127-.55 2.241-.683 5.31-1.617 7.575-.734 2.09.815 2.278 2.891 2.46 4.899.13 1.44.265 2.929 1.048 4.089 1.679 2.488 5.999 1.234 8.286.102.904-.448 1.584-1 2.183-1.486 1.027-.835 2.09-1.697 3.693-1.302 1.023.252 1.685.949 2.324 1.622.812.855 1.513 1.593 2.963 1.559 1.438-.035 1.59-.434 1.867-1.159.186-.486.417-1.09 1.023-1.537 1.079-.797 1.992-.342 2.659-.01.477.239.929.464 1.603.453.848-.012 2.221-1.3 3.174-2.461-1.076-.903-2.986-3.015-5.124-7.714-1.221-2.682-1.47-4.71-1.733-6.856-.412-3.357-.878-7.16-5.405-14.875-5.318-9.062-12.076-12.903-16.115-15.197a69.414 69.414 0 0 1-1.394-.806c-.327-.196-1.084-.557-1.692-.846-.441-.211-.85-.406-1.1-.537-3.775-1.99-8.767-2.835-14.854-2.519 4.56 1.331 11.341 4.049 17.643 9.429 10.564 9.018 16.328 26.538 16.569 27.28a.886.886 0 0 1-.588 1.116.908.908 0 0 1-1.137-.577c-.055-.168-5.297-16.095-14.558-25.13-.586 1.751-1.762 5.817-1.104 8.645.27 1.162.527 2.167.753 3.054.561 2.194.967 3.779 1.04 5.645l.001.035a.896.896 0 0 1-.869.888.898.898 0 0 1-.94-.854c-.063-1.601-.416-3.046-.911-4.984l-1.692 1.732a.916.916 0 0 1-1.279.026.879.879 0 0 1-.027-1.257l2.483-2.541c-.105-.425-.213-.874-.324-1.35-.897-3.868 1.027-9.315 1.421-10.365l-.025-.021c-3.382-2.887-6.941-4.98-10.188-6.489 1.312 2.37 3.006 6.24 1.755 8.703-.831 1.636-2.326 2.881-3.771 4.085-1.58 1.317-3.073 2.56-3.634 4.189a.909.909 0 0 1-1.147.557.885.885 0 0 1-.567-1.127c.722-2.096 2.479-3.559 4.177-4.975.617-.514 1.219-1.015 1.755-1.531-1.175-.373-3.399-.995-5.214-1.015-2.585-.028-6.246 1.24-6.282 1.252a.909.909 0 0 1-1.156-.539.885.885 0 0 1 .549-1.136c.161-.057 3.998-1.388 6.909-1.356 2.555.028 5.637 1.048 6.451 1.334.114-.174.218-.35.31-.531 1.126-2.219-1.763-7.315-2.864-8.925a.938.938 0 0 1-.099-.191c-5.15-2.008-8.968-2.496-9.035-2.504a.234.234 0 0 0-.026-.004c-8.189 1.226-11.853 3.678-12.62 4.255Zm5.71 35.206a23.26 23.26 0 0 1-1.597 7.868c-1.178 2.99-1.461 5.113-.842 6.308.344.666 1.014 1.122 2.048 1.395.937.246 1.75.415 2.535.578 1.882.392 3.508.73 5.255 1.916 1.476 1.002 1.109 2.398.89 3.232-.094.361-.201.77-.107.91.038.057.292.354 1.559.558 2.17.349 4.405-.321 6.2-.86 1.666-.499 2.87-.86 3.769-.367.277.152.641.456.798 1.044.274 1.023-.009 1.886-.237 2.581-.319.972-.397 1.204.561 1.753.814.466 1.87.43 2.988.392 1.72-.059 3.834-.131 5.35 1.843 1.191-.646 5.251-2.996 8.431-6.561 3.346-3.752 5.903-8.732 6.501-9.941a1.405 1.405 0 0 0-.207-.071c-.659-.162-1.053.099-2.1.949-.639.519-1.436 1.166-2.521 1.703-3.503 1.734-8.383 2.59-10.608-.706-1.037-1.537-1.2-3.332-1.344-4.915-.173-1.912-.32-3.012-1.325-3.404-1.671-.652-4.388.176-6.372.78-.997.304-1.859.566-2.499.623l-.237.022c-1.969.191-6.065.588-14.197-5.474a49.481 49.481 0 0 1-2.692-2.156ZM174.484 89c-4.039 0-8.004-.86-11.863-2.58a74.38 74.38 0 0 1-12.705-7.237 5.584 5.584 0 0 1-.493-.393l-4.282 3.39a.913.913 0 0 1-1.038.066c-.148-.09-3.668-2.23-6.649-5.653-2.99-3.436-4.301-6.81-4.355-6.95a.878.878 0 0 1 .168-.904l2.631-2.929a.908.908 0 0 1 .217-.176c-1.345-2.576-3.151-7.37-3.802-15.263-.576-6.99.323-12.721 2.671-17.036.125-.231.311-.609.512-1.017.344-.699.7-1.422.945-1.817.242-.389.505-.837.797-1.334 2.265-3.856 6.48-11.034 16.11-16.503 8.162-4.636 12.223-5.118 15.806-5.543 2.131-.253 3.971-.472 6.448-1.563 6.302-2.776 7.561-5.047 7.573-5.07a.925.925 0 0 1 1.324-.336c.66.45 3.956 2.806 3.992 5.084.017 1.104-.372 1.86-.656 2.41-.292.567-.281.58-.158.741.132.173.372.268.753.41.91.336 2.285.845 2.349 3.46.051 2.083-1.065 3.246-1.974 4.09 1.796.881 6.402 3.288 10.055 6.44 2.36 2.038 4.211 4.419 5.349 6.056.867 1.25 1.39 2.075 1.689 2.639 1.164-.621 1.955-.888 2.57-1.095.721-.243 1.119-.378 1.743-.948 2.078-1.896 5.471-.405 5.882-.126a.955.955 0 0 1 .413.68c.057.51-.239.826-.777 1.399-.894.952-2.754 2.934-3.647 6.297-.8 3.014-.633 6.516-.486 9.605.093 1.95.181 3.793.003 5.25-.584 4.76-1.798 14.666-9.22 22.81-3.55 3.894-8.004 7.295-12.612 9.68a.896.896 0 0 1-.264.136 38.195 38.195 0 0 1-3.423 1.539C182.165 88.237 178.29 89 174.484 89Zm-4.963-2.28c6.752 1.245 13.326-.247 19.056-3.099.397-.796 1.547-3.46 1.461-7.488-.1-4.747-.936-6.247-.944-6.26a.891.891 0 0 1 .316-1.213.905.905 0 0 1 1.225.281c.112.176 1.098 1.87 1.211 7.154.055 2.622-.362 4.719-.815 6.194a43.705 43.705 0 0 0 10.002-8.124 29.936 29.936 0 0 0 3.547-4.772c-.33-.796-1.075-3.097-.671-6.96.471-4.498.644-6.951.646-6.975.034-.49.473-.856.963-.827a.893.893 0 0 1 .84.949c-.002.025-.177 2.503-.651 7.037-.207 1.981-.082 3.485.107 4.52 2.89-5.819 3.593-11.558 3.991-14.807.16-1.308.076-3.078-.013-4.951-.154-3.218-.328-6.864.542-10.14.931-3.502 2.763-5.648 3.822-6.79-.842-.216-2.03-.33-2.716.297-.906.827-1.592 1.058-2.387 1.326-.751.253-1.686.568-3.312 1.558-1.501.914-1.536 2.112-1.471 3.992.045 1.244.094 2.653-.643 3.9-1.29 2.178-2.86 1.677-3.899 1.348-.562-.179-1.051-.335-1.56-.218-.048.384.286 1.462.534 2.264.57 1.84 1.35 4.362.928 6.907-.236 1.422-.669 2.291-1.363 2.737-.809.52-1.671.303-2.363.127-.909-.231-1.086-.21-1.347.163-1 1.425-1.28 2.726-1.666 4.527-.163.758-.349 1.619-.612 2.586-.41 1.512-1.199 2.569-2.344 3.142-1.74.871-4.245.632-7.883-.755a22.422 22.422 0 0 0-7.658-1.456h-.029c-.785 0-1.494.361-2.274.926-5.217 4.925-10.962 7.704-16.624 7.956a25.528 25.528 0 0 1-3.413-.097c-1.272.314-2.039 1.283-2.351 2.208-.389 1.152-.26 2.768 1.268 3.85a72.522 72.522 0 0 0 12.395 7.062 27.696 27.696 0 0 0 3.935 1.411c.577-.429 3.247-2.515 5.709-6.113-.19-.425-1.302-2.994-1.437-5.27-.067-1.135-.105-2.594.088-3.102l1.692.627s.011-.02.024-.074c-.005.02-.113.524.001 2.445.07 1.195.478 2.54.819 3.482 2.747-4.69 3.151-6.361 3.155-6.378a.909.909 0 0 1 1.072-.678.886.886 0 0 1 .697 1.041c-.04.194-.478 2.042-3.583 7.286-2.105 3.557-4.553 5.979-6.017 7.243ZM134.998 69.5a25.154 25.154 0 0 0 3.829 5.934c2.135 2.453 4.628 4.242 5.694 4.954l3.383-2.679c-1.239-.936-3.227-2.459-4.495-3.533-3.354-2.836-5.769-6.102-5.87-6.24a.919.919 0 0 1-.102-.177 10.205 10.205 0 0 1-.388-.542l-2.051 2.282Zm6.013-.184c.952 1.064 2.187 2.335 3.575 3.51.85.719 2.059 1.666 3.129 2.488a5.24 5.24 0 0 1 .273-1.99 5.219 5.219 0 0 1 1.234-2.012c-3.114-.514-6.106-1.34-8.211-1.996Zm-2.092-2.58c1.238.445 7.39 2.581 13.05 3.143a5.646 5.646 0 0 1 1.094-.086c1.746.031 3.416-.09 4.958-.368 5.667-1.02 9.359-4.075 11.565-5.9.389-.323.737-.61 1.048-.85.098-.076.197-.151.298-.226a44.111 44.111 0 0 0 4.525-5.056c5.734-7.444 5.378-11.004 5.207-12.715l-.025-.248c-.04-.443-.292-1.244-.559-2.092-.694-2.205-1.645-5.224-.747-7.452.829-2.057 2.94-2.242 4.98-2.42 1.464-.129 2.977-.262 4.157-1.032 2.528-1.652 1.254-5.901.103-8.151-.455-.89-1.016-1.558-1.51-2.148-.848-1.01-1.725-2.056-1.324-3.633.256-1.007.965-1.657 1.649-2.287.869-.798 1.619-1.488 1.585-2.915-.035-1.414-.441-1.564-1.178-1.836-.494-.183-1.108-.41-1.563-1.007-.81-1.06-.347-1.959-.009-2.615.242-.47.471-.914.46-1.578-.013-.833-1.322-2.184-2.501-3.122-.918 1.06-3.065 2.938-7.842 5.042-2.727 1.2-4.788 1.445-6.97 1.704-3.411.405-7.277.864-15.119 5.318-9.212 5.232-13.116 11.88-15.448 15.853-.3.51-.571.971-.819 1.372-.2.32-.567 1.065-.861 1.664-.214.434-.412.836-.546 1.082-2.022 3.714-2.881 8.625-2.559 14.613 1.353-4.486 4.115-11.157 9.583-17.357 9.167-10.392 26.977-16.063 27.731-16.3a.907.907 0 0 1 1.135.579.888.888 0 0 1-.587 1.118c-.171.054-16.361 5.21-25.544 14.322 1.779.577 5.913 1.733 8.786 1.086 1.182-.266 2.204-.518 3.105-.741 2.23-.552 3.842-.95 5.738-1.023l.036-.001c.483 0 .884.376.902.855a.895.895 0 0 1-.868.924c-1.627.063-3.096.41-5.066.897l1.761 1.664a.88.88 0 0 1 .026 1.259.913.913 0 0 1-1.277.026l-2.584-2.442c-.431.103-.888.21-1.371.318-3.932.882-9.47-1.01-10.537-1.397l-.021.024c-2.935 3.327-5.062 6.828-6.596 10.023 2.409-1.291 6.343-2.958 8.847-1.726 1.663.817 2.928 2.287 4.152 3.71 1.338 1.554 2.602 3.022 4.258 3.574a.887.887 0 0 1 .566 1.129.906.906 0 0 1-1.146.557c-2.13-.71-3.618-2.438-5.056-4.11-.523-.607-1.032-1.199-1.557-1.726-.379 1.156-1.011 3.344-1.032 5.13-.028 2.543 1.261 6.144 1.273 6.18a.887.887 0 0 1-.548 1.137.906.906 0 0 1-1.154-.54c-.058-.158-1.411-3.934-1.378-6.797.028-2.513 1.065-5.546 1.355-6.346a5.725 5.725 0 0 0-.54-.305c-2.255-1.107-7.435 1.734-9.072 2.817a.904.904 0 0 1-.194.098c-2.041 5.066-2.538 8.822-2.546 8.888l-.003.025c1.246 8.057 3.738 11.661 4.324 12.416Zm35.788-5.618c1.953.047 4.841.369 7.997 1.571 3.04 1.159 5.198 1.437 6.412.828.678-.339 1.141-.998 1.418-2.015.25-.921.422-1.72.588-2.494.398-1.851.742-3.45 1.948-5.17 1.018-1.451 2.437-1.09 3.285-.875.367.092.782.198.924.106.059-.038.36-.288.568-1.534.354-2.135-.327-4.334-.874-6.1-.507-1.64-.874-2.824-.374-3.708.155-.272.464-.63 1.062-.785 1.04-.27 1.917.01 2.623.234.988.313 1.224.39 1.782-.552.474-.801.438-1.84.399-2.94-.06-1.692-.133-3.772 1.874-5.264-.657-1.171-3.046-5.165-6.67-8.293-3.814-3.292-8.876-5.808-10.105-6.396a1.28 1.28 0 0 0-.072.204c-.165.648.101 1.036.964 2.066.528.629 1.185 1.413 1.732 2.48 1.762 3.446 2.632 8.247-.718 10.436-1.562 1.02-3.386 1.18-4.996 1.322-1.943.17-3.062.315-3.46 1.304-.663 1.644.178 4.316.792 6.268.309.981.576 1.829.634 2.459l.022.233c.195 1.937.598 5.966-5.564 13.966a49.418 49.418 0 0 1-2.191 2.65ZM427.279 0c4.04 0 8.004.86 11.863 2.58a74.338 74.338 0 0 1 12.705 7.237c.174.123.338.254.493.393l4.282-3.39a.913.913 0 0 1 1.038-.066c.148.09 3.668 2.23 6.649 5.654 2.99 3.434 4.301 6.808 4.355 6.95a.878.878 0 0 1-.168.904l-2.631 2.928a.908.908 0 0 1-.217.176c1.345 2.576 3.151 7.37 3.802 15.263.576 6.99-.322 12.721-2.671 17.036-.125.231-.311.609-.512 1.017-.344.699-.7 1.422-.945 1.817-.242.389-.505.837-.797 1.334-2.265 3.856-6.48 11.034-16.11 16.503-8.162 4.636-12.223 5.118-15.806 5.543-2.131.253-3.971.472-6.448 1.563-6.302 2.776-7.561 5.047-7.573 5.07a.924.924 0 0 1-1.324.336c-.66-.45-3.956-2.806-3.991-5.084-.018-1.104.371-1.86.655-2.41.292-.567.281-.58.158-.742-.132-.172-.372-.267-.753-.408-.91-.337-2.285-.846-2.349-3.46-.051-2.084 1.065-3.247 1.974-4.09-1.796-.882-6.402-3.29-10.055-6.442-2.36-2.037-4.211-4.418-5.349-6.056-.867-1.25-1.39-2.073-1.689-2.638-1.163.621-1.955.888-2.57 1.095-.721.243-1.119.377-1.743.948-2.077 1.896-5.471.406-5.882.126a.955.955 0 0 1-.413-.68c-.057-.51.239-.826.777-1.399.894-.952 2.754-2.934 3.647-6.297.8-3.014.633-6.516.486-9.605-.093-1.95-.181-3.793-.003-5.25.584-4.76 1.798-14.666 9.22-22.81 3.55-3.894 8.004-7.295 12.612-9.68a.91.91 0 0 1 .264-.136 38.187 38.187 0 0 1 3.423-1.539C419.598.763 423.473 0 427.279 0Zm4.963 2.28c-6.752-1.245-13.326.247-19.056 3.099-.397.796-1.547 3.46-1.461 7.488.1 4.747.936 6.247.944 6.26a.891.891 0 0 1-.316 1.213.903.903 0 0 1-1.224-.281c-.113-.176-1.099-1.87-1.211-7.154-.056-2.622.361-4.719.814-6.194a43.707 43.707 0 0 0-10.002 8.124 29.936 29.936 0 0 0-3.547 4.772c.33.796 1.075 3.097.671 6.96-.471 4.498-.644 6.951-.646 6.975-.034.49-.473.856-.963.827a.893.893 0 0 1-.84-.949c.002-.025.177-2.503.651-7.037.207-1.981.082-3.485-.107-4.52-2.89 5.819-3.593 11.558-3.991 14.807-.16 1.308-.076 3.078.013 4.951.154 3.218.328 6.864-.542 10.14-.931 3.502-2.763 5.648-3.822 6.79.842.216 2.03.33 2.716-.297.906-.827 1.592-1.058 2.387-1.326.751-.253 1.686-.568 3.312-1.558 1.501-.914 1.537-2.112 1.471-3.992-.045-1.244-.094-2.653.643-3.9 1.29-2.178 2.86-1.677 3.899-1.348.562.179 1.051.335 1.56.218.048-.384-.286-1.462-.534-2.264-.57-1.84-1.35-4.362-.928-6.907.236-1.422.669-2.291 1.363-2.737.809-.52 1.671-.303 2.363-.127.909.231 1.086.21 1.347-.163 1-1.425 1.28-2.726 1.666-4.527.164-.758.349-1.619.612-2.586.411-1.512 1.199-2.569 2.344-3.142 1.74-.871 4.245-.631 7.883.755a22.422 22.422 0 0 0 7.658 1.456h.029c.785 0 1.494-.361 2.274-.926 5.217-4.925 10.962-7.704 16.624-7.956a25.528 25.528 0 0 1 3.413.097c1.272-.314 2.039-1.283 2.351-2.208.389-1.152.261-2.768-1.268-3.85A72.525 72.525 0 0 0 438.397 4.2a27.734 27.734 0 0 0-3.934-1.411c-.577.429-3.247 2.515-5.71 6.113.19.425 1.302 2.994 1.437 5.27.067 1.135.106 2.594-.088 3.102l-1.692-.627s-.011.02-.024.074c.005-.02.113-.524-.001-2.445-.07-1.195-.478-2.54-.819-3.482-2.747 4.69-3.151 6.361-3.155 6.378a.909.909 0 0 1-1.072.679.886.886 0 0 1-.697-1.042c.04-.194.478-2.042 3.583-7.286 2.105-3.557 4.553-5.979 6.017-7.243Zm34.523 17.22a25.154 25.154 0 0 0-3.829-5.934c-2.135-2.453-4.628-4.241-5.694-4.954l-3.382 2.679c1.238.936 3.226 2.459 4.494 3.533 3.354 2.836 5.769 6.101 5.871 6.24a.914.914 0 0 1 .101.177c.105.136.236.316.388.542l2.051-2.282Zm-6.012.184c-.953-1.064-2.187-2.335-3.576-3.51-.849-.719-2.059-1.666-3.129-2.488a5.24 5.24 0 0 1-.273 1.99 5.219 5.219 0 0 1-1.234 2.012c3.114.514 6.106 1.34 8.212 1.996Zm2.091 2.58c-1.238-.445-7.39-2.581-13.05-3.143a5.64 5.64 0 0 1-1.094.086c-1.746-.031-3.416.09-4.958.368-5.666 1.02-9.359 4.075-11.565 5.9-.389.323-.737.61-1.048.85-.098.076-.197.151-.298.226a44.111 44.111 0 0 0-4.525 5.056c-5.734 7.444-5.378 11.004-5.207 12.715l.025.248c.04.443.292 1.244.559 2.092.694 2.205 1.645 5.224.747 7.452-.829 2.056-2.94 2.242-4.98 2.42-1.464.129-2.977.262-4.157 1.032-2.528 1.652-1.254 5.901-.103 8.151.455.89 1.016 1.558 1.51 2.148.849 1.01 1.725 2.056 1.324 3.633-.256 1.007-.965 1.657-1.649 2.287-.869.798-1.619 1.488-1.585 2.915.035 1.413.441 1.563 1.178 1.836.494.183 1.108.41 1.563 1.007.81 1.06.347 1.959.009 2.615-.242.47-.47.914-.46 1.578.013.833 1.322 2.184 2.501 3.122.919-1.06 3.065-2.938 7.842-5.042 2.727-1.2 4.788-1.445 6.97-1.704 3.411-.405 7.278-.864 15.119-5.318 9.212-5.231 13.116-11.88 15.448-15.853.3-.51.571-.972.819-1.372.2-.32.567-1.066.861-1.664.214-.434.412-.836.546-1.082 2.022-3.714 2.881-8.625 2.559-14.613-1.352 4.486-4.115 11.157-9.583 17.357-9.167 10.392-26.977 16.063-27.73 16.3a.906.906 0 0 1-1.135-.579.887.887 0 0 1 .586-1.118c.171-.054 16.361-5.21 25.544-14.322-1.779-.577-5.912-1.733-8.786-1.086-1.182.266-2.204.518-3.105.741-2.23.552-3.842.95-5.738 1.023l-.036.001a.897.897 0 0 1-.902-.855.895.895 0 0 1 .868-.924c1.627-.063 3.096-.41 5.066-.897l-1.761-1.664a.88.88 0 0 1-.026-1.259.913.913 0 0 1 1.277-.026l2.584 2.442c.431-.103.888-.21 1.372-.318 3.932-.882 9.469 1.01 10.536 1.397l.021-.024c2.935-3.327 5.063-6.828 6.596-10.023-2.409 1.291-6.343 2.958-8.847 1.726-1.662-.817-2.928-2.287-4.152-3.71-1.338-1.554-2.602-3.022-4.258-3.574a.887.887 0 0 1-.566-1.129.907.907 0 0 1 1.146-.557c2.13.71 3.618 2.438 5.056 4.11.523.607 1.032 1.199 1.557 1.726.379-1.156 1.011-3.344 1.032-5.13.029-2.543-1.261-6.144-1.273-6.18a.887.887 0 0 1 .548-1.137.906.906 0 0 1 1.154.54c.058.158 1.411 3.934 1.378 6.797-.028 2.513-1.065 5.546-1.355 6.346.177.112.356.214.54.305 2.256 1.107 7.435-1.734 9.072-2.817a.904.904 0 0 1 .194-.098c2.041-5.066 2.538-8.822 2.546-8.888l.003-.025c-1.246-8.057-3.738-11.661-4.324-12.416Zm-35.788 5.618a24.31 24.31 0 0 1-7.997-1.571c-3.04-1.159-5.198-1.437-6.412-.828-.678.339-1.141.998-1.418 2.015-.25.921-.422 1.72-.588 2.494-.398 1.851-.742 3.45-1.947 5.17-1.019 1.451-2.438 1.09-3.286.875-.367-.092-.782-.198-.924-.106-.059.038-.36.288-.567 1.534-.355 2.135.326 4.334.873 6.1.507 1.64.874 2.824.374 3.708-.155.272-.464.63-1.062.785-1.039.27-1.917-.01-2.623-.234-.988-.313-1.224-.39-1.782.552-.474.801-.438 1.84-.399 2.94.06 1.692.133 3.772-1.874 5.264.657 1.171 3.046 5.165 6.67 8.293 3.814 3.292 8.876 5.808 10.105 6.396a1.28 1.28 0 0 0 .072-.204c.165-.648-.101-1.036-.964-2.066-.528-.629-1.185-1.413-1.732-2.48-1.762-3.446-2.632-8.247.718-10.436 1.562-1.02 3.387-1.18 4.996-1.322 1.943-.17 3.062-.315 3.46-1.304.663-1.644-.178-4.316-.792-6.268-.309-.981-.576-1.829-.634-2.459l-.022-.233c-.195-1.937-.598-5.966 5.564-13.966a49.418 49.418 0 0 1 2.191-2.65ZM680.697 89c-4.039 0-8.004-.86-11.863-2.58a74.38 74.38 0 0 1-12.705-7.237 5.584 5.584 0 0 1-.493-.393l-4.282 3.39a.913.913 0 0 1-1.038.066c-.148-.09-3.668-2.23-6.648-5.653-2.991-3.436-4.302-6.81-4.356-6.95a.878.878 0 0 1 .168-.904l2.631-2.929a.908.908 0 0 1 .217-.176c-1.345-2.576-3.151-7.37-3.802-15.263-.576-6.99.323-12.721 2.671-17.036.125-.231.311-.609.512-1.017.344-.699.7-1.422.945-1.817.242-.389.505-.837.797-1.334 2.265-3.856 6.48-11.034 16.11-16.503 8.162-4.636 12.223-5.118 15.806-5.543 2.131-.253 3.971-.472 6.448-1.563 6.302-2.776 7.561-5.047 7.573-5.07a.925.925 0 0 1 1.324-.336c.66.45 3.956 2.806 3.992 5.084.017 1.104-.372 1.86-.656 2.41-.292.567-.281.58-.158.741.132.173.372.268.753.41.91.336 2.285.845 2.349 3.46.051 2.083-1.065 3.246-1.974 4.09 1.796.881 6.402 3.288 10.055 6.44 2.36 2.038 4.211 4.419 5.349 6.056.867 1.25 1.39 2.075 1.689 2.639 1.164-.621 1.955-.888 2.57-1.095.721-.243 1.119-.378 1.743-.948 2.078-1.896 5.471-.405 5.882-.126a.955.955 0 0 1 .413.68c.057.51-.239.826-.777 1.399-.894.952-2.754 2.934-3.647 6.297-.8 3.014-.633 6.516-.486 9.605.093 1.95.181 3.793.003 5.25-.584 4.76-1.798 14.666-9.22 22.81-3.55 3.894-8.004 7.295-12.612 9.68a.896.896 0 0 1-.264.136 38.195 38.195 0 0 1-3.423 1.539c-3.915 1.528-7.79 2.291-11.596 2.291Zm-4.963-2.28c6.752 1.245 13.326-.247 19.056-3.099.397-.796 1.547-3.46 1.461-7.488-.1-4.747-.936-6.247-.944-6.26a.891.891 0 0 1 .316-1.213.905.905 0 0 1 1.225.281c.112.176 1.098 1.87 1.211 7.154.055 2.622-.362 4.719-.815 6.194a43.705 43.705 0 0 0 10.002-8.124 29.936 29.936 0 0 0 3.547-4.772c-.33-.796-1.075-3.097-.671-6.96.471-4.498.644-6.951.646-6.975.034-.49.473-.856.963-.827a.893.893 0 0 1 .84.949c-.002.025-.177 2.503-.651 7.037-.207 1.981-.082 3.485.107 4.52 2.89-5.819 3.593-11.558 3.991-14.807.16-1.308.076-3.078-.013-4.951-.154-3.218-.328-6.864.542-10.14.931-3.502 2.763-5.648 3.822-6.79-.842-.216-2.03-.33-2.716.297-.906.827-1.592 1.058-2.387 1.326-.751.253-1.686.568-3.312 1.558-1.501.914-1.536 2.112-1.471 3.992.045 1.244.094 2.653-.643 3.9-1.29 2.178-2.86 1.677-3.899 1.348-.562-.179-1.051-.335-1.56-.218-.048.384.286 1.462.534 2.264.57 1.84 1.35 4.362.928 6.907-.236 1.422-.669 2.291-1.363 2.737-.809.52-1.671.303-2.363.127-.909-.231-1.086-.21-1.347.163-1 1.425-1.28 2.726-1.666 4.527-.163.758-.349 1.619-.612 2.586-.41 1.512-1.199 2.569-2.344 3.142-1.74.871-4.245.632-7.883-.755a22.422 22.422 0 0 0-7.658-1.456h-.029c-.785 0-1.494.361-2.274.926-5.217 4.925-10.962 7.704-16.624 7.956a25.528 25.528 0 0 1-3.413-.097c-1.272.314-2.039 1.283-2.351 2.208-.389 1.152-.26 2.768 1.268 3.85a72.522 72.522 0 0 0 12.395 7.062 27.696 27.696 0 0 0 3.935 1.411c.577-.429 3.247-2.515 5.709-6.113-.19-.425-1.302-2.994-1.437-5.27-.067-1.135-.105-2.594.088-3.102l1.692.627s.011-.02.024-.074c-.005.02-.113.524.001 2.445.07 1.195.478 2.54.819 3.482 2.747-4.69 3.151-6.361 3.155-6.378a.909.909 0 0 1 1.072-.678.886.886 0 0 1 .697 1.041c-.04.194-.478 2.042-3.583 7.286-2.105 3.557-4.553 5.979-6.017 7.243ZM641.211 69.5a25.154 25.154 0 0 0 3.829 5.934c2.135 2.453 4.628 4.242 5.694 4.954l3.383-2.679c-1.239-.936-3.227-2.459-4.495-3.533-3.354-2.836-5.769-6.102-5.87-6.24a.919.919 0 0 1-.102-.177 10.816 10.816 0 0 1-.388-.542l-2.051 2.282Zm6.013-.184c.952 1.064 2.187 2.335 3.575 3.51.85.719 2.059 1.666 3.129 2.488a5.24 5.24 0 0 1 .273-1.99 5.219 5.219 0 0 1 1.234-2.012c-3.114-.514-6.106-1.34-8.211-1.996Zm-2.092-2.58c1.238.445 7.39 2.581 13.05 3.143a5.646 5.646 0 0 1 1.094-.086c1.746.031 3.416-.09 4.958-.368 5.667-1.02 9.359-4.075 11.565-5.9.389-.323.737-.61 1.048-.85.098-.076.197-.151.298-.226a44.111 44.111 0 0 0 4.525-5.056c5.734-7.444 5.378-11.004 5.207-12.715l-.025-.248c-.04-.443-.292-1.244-.559-2.092-.694-2.205-1.644-5.224-.747-7.452.829-2.057 2.94-2.242 4.98-2.42 1.464-.129 2.977-.262 4.157-1.032 2.528-1.652 1.254-5.901.103-8.151-.455-.89-1.016-1.558-1.51-2.148-.848-1.01-1.725-2.056-1.324-3.633.256-1.007.965-1.657 1.649-2.287.869-.798 1.619-1.488 1.585-2.915-.035-1.414-.441-1.564-1.178-1.836-.494-.183-1.108-.41-1.563-1.007-.81-1.06-.347-1.959-.009-2.615.242-.47.471-.914.46-1.578-.013-.833-1.322-2.184-2.501-3.122-.918 1.06-3.065 2.938-7.842 5.042-2.727 1.2-4.788 1.445-6.97 1.704-3.411.405-7.277.864-15.119 5.318-9.212 5.232-13.116 11.88-15.448 15.853-.3.51-.571.971-.819 1.372-.2.32-.567 1.065-.861 1.664-.214.434-.412.836-.546 1.082-2.022 3.714-2.881 8.625-2.559 14.613 1.353-4.486 4.115-11.157 9.583-17.357 9.167-10.392 26.977-16.063 27.731-16.3a.907.907 0 0 1 1.135.579.888.888 0 0 1-.587 1.118c-.171.054-16.361 5.21-25.544 14.322 1.779.577 5.913 1.733 8.786 1.086 1.182-.266 2.204-.518 3.105-.741 2.23-.552 3.842-.95 5.738-1.023l.036-.001c.483 0 .884.376.902.855a.895.895 0 0 1-.868.924c-1.627.063-3.096.41-5.066.897l1.761 1.664a.88.88 0 0 1 .026 1.259.913.913 0 0 1-1.277.026l-2.584-2.442c-.431.103-.888.21-1.371.318-3.932.882-9.47-1.01-10.537-1.397l-.021.024c-2.935 3.327-5.062 6.828-6.596 10.023 2.409-1.291 6.343-2.958 8.847-1.726 1.663.817 2.928 2.287 4.152 3.71 1.338 1.554 2.602 3.022 4.258 3.574a.887.887 0 0 1 .566 1.129.906.906 0 0 1-1.146.557c-2.13-.71-3.618-2.438-5.056-4.11-.523-.607-1.032-1.199-1.557-1.726-.379 1.156-1.011 3.344-1.032 5.13-.028 2.543 1.261 6.144 1.273 6.18a.887.887 0 0 1-.548 1.137.906.906 0 0 1-1.154-.54c-.058-.158-1.411-3.934-1.378-6.797.028-2.513 1.065-5.546 1.355-6.346a5.725 5.725 0 0 0-.54-.305c-2.255-1.107-7.435 1.734-9.072 2.817a.904.904 0 0 1-.194.098c-2.041 5.066-2.538 8.822-2.546 8.888l-.003.025c1.246 8.057 3.738 11.661 4.324 12.416Zm35.788-5.618c1.953.047 4.841.369 7.997 1.571 3.04 1.159 5.198 1.437 6.412.828.678-.339 1.141-.998 1.418-2.015.25-.921.422-1.72.588-2.494.398-1.851.742-3.45 1.948-5.17 1.018-1.451 2.437-1.09 3.285-.875.367.092.782.198.924.106.059-.038.36-.288.568-1.534.354-2.135-.327-4.334-.874-6.1-.507-1.64-.874-2.824-.374-3.708.155-.272.464-.63 1.062-.785 1.04-.27 1.917.01 2.623.234.988.313 1.224.39 1.782-.552.474-.801.438-1.84.399-2.94-.06-1.692-.133-3.772 1.874-5.264-.657-1.171-3.046-5.165-6.67-8.293-3.814-3.292-8.876-5.808-10.105-6.396a1.28 1.28 0 0 0-.072.204c-.165.648.101 1.036.964 2.066.528.629 1.185 1.413 1.732 2.48 1.762 3.446 2.632 8.247-.718 10.436-1.562 1.02-3.386 1.18-4.996 1.322-1.943.17-3.062.315-3.46 1.304-.663 1.644.178 4.316.792 6.268.309.981.576 1.829.634 2.459l.022.233c.195 1.937.598 5.966-5.564 13.966a49.418 49.418 0 0 1-2.191 2.65ZM343.574 104.347c.001 3.974-.874 7.874-2.621 11.67a72.611 72.611 0 0 1-7.358 12.5 5.53 5.53 0 0 1-.399.485l3.446 4.211c.24.292.267.701.067 1.021-.091.146-2.267 3.61-5.747 6.542-3.492 2.942-6.921 4.231-7.065 4.285a.917.917 0 0 1-.918-.166l-2.977-2.588a.918.918 0 0 1-.179-.213c-2.619 1.323-7.492 3.099-15.515 3.74-7.105.567-12.931-.318-17.317-2.628-.235-.123-.619-.306-1.034-.504-.71-.339-1.445-.688-1.846-.93-.396-.238-.851-.496-1.356-.783-3.92-2.228-11.216-6.375-16.776-15.849-4.712-8.029-5.202-12.025-5.634-15.549-.257-2.097-.48-3.907-1.589-6.344-2.821-6.2-5.13-7.439-5.153-7.45a.915.915 0 0 1-.468-.58.881.881 0 0 1 .125-.722c.457-.65 2.853-3.892 5.169-3.927 1.122-.018 1.89.365 2.45.645.575.286.589.276.753.155.176-.13.273-.366.416-.741.342-.896.859-2.248 3.517-2.31 2.118-.051 3.3 1.047 4.157 1.941.897-1.767 3.343-6.298 6.548-9.892 2.07-2.321 4.491-4.142 6.156-5.261 1.27-.854 2.108-1.368 2.681-1.662a14.685 14.685 0 0 1-1.112-2.528c-.247-.71-.384-1.102-.964-1.716-1.927-2.043-.412-5.382-.128-5.786a.972.972 0 0 1 .692-.406c.518-.056.839.235 1.421.764.968.88 2.983 2.709 6.401 3.588 3.063.787 6.623.623 9.763.478 1.983-.092 3.856-.178 5.336-.003 4.839.574 14.909 1.769 23.187 9.07 3.958 3.493 7.416 7.875 9.84 12.407.061.08.107.167.138.26a36.932 36.932 0 0 1 1.564 3.368c1.553 3.852 2.329 7.663 2.329 11.408Zm-2.318 4.882c1.266-6.643-.251-13.11-3.149-18.747-.809-.39-3.518-1.521-7.612-1.437-4.826.099-6.35.92-6.364.93a.924.924 0 0 1-1.233-.313.873.873 0 0 1 .287-1.204c.179-.11 1.899-1.08 7.272-1.191 2.665-.054 4.796.356 6.296.801-2.327-3.826-5.248-7.184-8.258-9.84a30.451 30.451 0 0 0-4.851-3.49c-.809.326-3.148 1.059-7.074.66-4.573-.462-7.067-.633-7.091-.634a.902.902 0 0 1-.841-.948.899.899 0 0 1 .965-.826c.025.002 2.545.174 7.153.64 2.014.204 3.543.081 4.595-.105-5.915-2.843-11.749-3.534-15.051-3.926-1.33-.157-3.129-.075-5.034.013-3.27.151-6.976.322-10.306-.534-3.56-.915-5.742-2.718-6.903-3.76-.219.829-.335 1.997.302 2.672.841.891 1.076 1.567 1.348 2.348.257.74.578 1.659 1.584 3.259.929 1.476 2.147 1.512 4.058 1.447 1.264-.044 2.697-.092 3.963.633 2.215 1.269 1.706 2.813 1.372 3.835-.182.553-.341 1.034-.222 1.535.391.047 1.486-.281 2.301-.525 1.871-.561 4.434-1.329 7.021-.913 1.445.232 2.329.658 2.782 1.34.529.797.308 1.644.129 2.325-.235.895-.213 1.069.166 1.326 1.449.984 2.771 1.258 4.601 1.639.772.16 1.646.343 2.63.601 1.536.404 2.61 1.18 3.193 2.306.886 1.712.642 4.177-.767 7.755a21.408 21.408 0 0 0-1.48 7.535v.028c0 .772.367 1.47.941 2.237 5.006 5.132 7.831 10.784 8.087 16.354.05 1.076.009 2.21-.099 3.358.32 1.251 1.304 2.005 2.245 2.313 1.171.382 2.814.256 3.914-1.248a70.768 70.768 0 0 0 7.178-12.194 26.771 26.771 0 0 0 1.435-3.87c-.437-.568-2.557-3.195-6.215-5.617-.432.187-3.043 1.281-5.357 1.413-1.153.066-2.637.104-3.153-.086l.637-1.664s-.02-.011-.074-.024c.02.005.532.111 2.485-.001 1.214-.069 2.581-.47 3.54-.806-4.768-2.703-6.467-3.1-6.484-3.104a.894.894 0 0 1-.69-1.054.9.9 0 0 1 1.059-.686c.197.04 2.076.47 7.406 3.525 3.615 2.071 6.077 4.479 7.363 5.919Zm-17.504 33.963a25.758 25.758 0 0 0 6.033-3.767c2.493-2.1 4.311-4.553 5.035-5.602l-2.723-3.327c-.952 1.219-2.499 3.174-3.591 4.422-2.883 3.299-6.202 5.675-6.343 5.775a.912.912 0 0 1-.18.1c-.138.103-.321.232-.551.382l2.32 2.017Zm-.186-5.915c1.081-.937 2.374-2.151 3.567-3.517.731-.836 1.694-2.025 2.53-3.079a5.483 5.483 0 0 1-2.023-.268 5.34 5.34 0 0 1-2.046-1.214c-.522 3.064-1.362 6.007-2.028 8.078Zm-2.624 2.057c.454-1.217 2.625-7.269 3.196-12.838a5.301 5.301 0 0 1-.087-1.076c.031-1.718-.093-3.36-.374-4.877-1.037-5.575-4.143-9.207-5.999-11.378-.327-.382-.62-.725-.863-1.03a21.034 21.034 0 0 1-.229-.293 44.486 44.486 0 0 0-5.14-4.453c-7.567-5.64-11.186-5.29-12.924-5.121l-.253.023c-.45.04-1.265.288-2.127.55-2.241.684-5.31 1.618-7.575.735-2.09-.815-2.278-2.891-2.46-4.899-.13-1.44-.265-2.929-1.048-4.09-1.679-2.487-5.999-1.233-8.286-.1-.904.447-1.584.999-2.183 1.485-1.027.835-2.09 1.697-3.693 1.302-1.023-.252-1.685-.949-2.324-1.622-.812-.855-1.513-1.593-2.963-1.559-1.438.034-1.59.434-1.867 1.159-.186.486-.417 1.09-1.023 1.537-1.079.797-1.992.342-2.659.01-.477-.239-.929-.464-1.603-.453-.848.012-2.221 1.3-3.174 2.46 1.076.904 2.986 3.016 5.124 7.715 1.221 2.682 1.47 4.71 1.733 6.856.412 3.357.878 7.16 5.405 14.875 5.318 9.062 12.076 12.903 16.115 15.197.519.295.988.562 1.394.806.327.196 1.084.557 1.692.846.441.211.85.406 1.1.537 3.775 1.99 8.767 2.835 14.854 2.519-4.56-1.331-11.341-4.049-17.643-9.429-10.564-9.018-16.328-26.538-16.569-27.28a.886.886 0 0 1 .588-1.116.908.908 0 0 1 1.137.577c.055.168 5.297 16.095 14.558 25.13.587-1.751 1.762-5.817 1.104-8.645-.27-1.162-.527-2.167-.753-3.054-.561-2.194-.967-3.779-1.04-5.645l-.001-.035c0-.475.382-.869.869-.888.5-.019.921.363.94.854.063 1.601.416 3.046.911 4.984l1.692-1.732a.916.916 0 0 1 1.279-.026.879.879 0 0 1 .027 1.257l-2.483 2.541c.105.425.213.874.324 1.35.897 3.868-1.027 9.315-1.421 10.365l.025.021c3.382 2.887 6.941 4.98 10.188 6.489-1.312-2.37-3.006-6.24-1.755-8.703.831-1.636 2.326-2.881 3.771-4.085 1.58-1.317 3.073-2.56 3.634-4.189a.909.909 0 0 1 1.147-.557.885.885 0 0 1 .567 1.127c-.722 2.096-2.479 3.559-4.177 4.975-.617.514-1.219 1.015-1.755 1.531 1.175.373 3.399.995 5.214 1.015 2.585.028 6.246-1.24 6.282-1.252a.909.909 0 0 1 1.156.539.885.885 0 0 1-.549 1.136c-.161.057-3.998 1.388-6.909 1.356-2.555-.028-5.637-1.048-6.451-1.334-.114.174-.218.35-.31.531-1.126 2.219 1.763 7.315 2.864 8.925a.938.938 0 0 1 .099.191c5.15 2.008 8.968 2.496 9.035 2.504a.234.234 0 0 0 .026.004c8.189-1.226 11.853-3.678 12.62-4.255Zm-5.709-35.206a23.227 23.227 0 0 1 1.596-7.868c1.178-2.99 1.461-5.113.842-6.308-.344-.666-1.014-1.122-2.048-1.394a47.569 47.569 0 0 0-2.535-.58c-1.882-.39-3.508-.729-5.255-1.915-1.476-1.002-1.109-2.398-.89-3.232.094-.361.201-.77.107-.91-.038-.057-.292-.354-1.559-.558-2.17-.349-4.405.321-6.2.86-1.666.499-2.87.86-3.769.367a1.63 1.63 0 0 1-.798-1.044c-.274-1.023.009-1.887.237-2.58.319-.973.397-1.205-.561-1.754-.814-.466-1.87-.43-2.988-.392-1.72.059-3.834.131-5.35-1.843-1.191.646-5.251 2.996-8.431 6.561-3.346 3.752-5.903 8.732-6.501 9.94.067.03.137.054.207.072.659.162 1.053-.1 2.1-.949.639-.52 1.436-1.166 2.521-1.703 3.503-1.734 8.383-2.59 10.608.706 1.037 1.537 1.2 3.332 1.344 4.915.173 1.912.32 3.012 1.325 3.404 1.671.652 4.388-.175 6.372-.78.997-.304 1.859-.566 2.499-.623l.237-.022c1.969-.191 6.065-.588 14.197 5.474a49.899 49.899 0 0 1 2.693 2.156ZM596.681 104.347c0 3.974-.874 7.874-2.622 11.67a72.606 72.606 0 0 1-7.357 12.5 5.914 5.914 0 0 1-.399.485l3.446 4.211c.24.292.266.701.066 1.021-.09.146-2.267 3.61-5.746 6.542-3.492 2.942-6.921 4.231-7.065 4.285a.919.919 0 0 1-.919-.166l-2.976-2.588a.923.923 0 0 1-.18-.213c-2.618 1.323-7.491 3.099-15.515 3.74-7.105.567-12.931-.318-17.316-2.628-.235-.123-.619-.306-1.034-.504-.71-.339-1.445-.688-1.847-.93-.395-.238-.851-.496-1.356-.783-3.92-2.228-11.216-6.375-16.776-15.849-4.711-8.029-5.201-12.025-5.634-15.549-.257-2.097-.479-3.907-1.589-6.344-2.821-6.2-5.13-7.439-5.153-7.45a.913.913 0 0 1-.467-.58.874.874 0 0 1 .125-.722c.457-.65 2.853-3.892 5.168-3.927 1.123-.018 1.891.365 2.451.645.575.286.588.276.753.155.175-.13.272-.366.415-.741.343-.896.86-2.248 3.518-2.31 2.117-.051 3.299 1.047 4.157 1.941.896-1.767 3.343-6.298 6.548-9.892 2.07-2.321 4.49-4.142 6.155-5.261 1.27-.854 2.108-1.368 2.682-1.662-.631-1.145-.902-1.924-1.113-2.528-.247-.71-.384-1.102-.963-1.716-1.928-2.043-.413-5.382-.129-5.786a.974.974 0 0 1 .692-.406c.518-.056.839.235 1.421.764.969.88 2.983 2.709 6.402 3.588 3.063.787 6.623.623 9.763.478 1.983-.092 3.855-.178 5.335-.003 4.839.574 14.909 1.769 23.187 9.07 3.959 3.493 7.416 7.875 9.84 12.407.061.08.107.167.138.26a36.944 36.944 0 0 1 1.565 3.368c1.553 3.852 2.329 7.663 2.329 11.408Zm-2.318 4.882c1.265-6.643-.251-13.11-3.15-18.747-.809-.39-3.517-1.521-7.612-1.437-4.825.099-6.349.92-6.364.93a.922.922 0 0 1-1.232-.313.872.872 0 0 1 .286-1.204c.179-.11 1.9-1.08 7.272-1.191 2.665-.054 4.796.356 6.296.801-2.326-3.826-5.248-7.184-8.258-9.84a30.406 30.406 0 0 0-4.851-3.49c-.809.326-3.147 1.059-7.074.66-4.573-.462-7.066-.633-7.091-.634a.901.901 0 0 1-.84-.948.898.898 0 0 1 .964-.826c.026.002 2.545.174 7.153.64 2.014.204 3.543.081 4.596-.105-5.915-2.843-11.75-3.534-15.052-3.926-1.329-.157-3.129-.075-5.033.013-3.271.151-6.977.322-10.306-.534-3.56-.915-5.742-2.718-6.903-3.76-.22.829-.336 1.997.302 2.672.84.891 1.075 1.567 1.348 2.348.257.74.577 1.659 1.584 3.259.929 1.476 2.147 1.512 4.058 1.447 1.264-.044 2.696-.092 3.963.633 2.214 1.269 1.705 2.813 1.371 3.835-.182.553-.34 1.034-.222 1.535.391.047 1.487-.281 2.301-.525 1.872-.561 4.435-1.329 7.022-.913 1.444.232 2.328.658 2.781 1.34.53.797.308 1.644.129 2.325-.234.895-.213 1.069.167 1.326 1.448.984 2.771 1.258 4.601 1.639.771.16 1.646.343 2.629.601 1.536.404 2.611 1.18 3.194 2.306.885 1.712.642 4.177-.768 7.755a21.43 21.43 0 0 0-1.48 7.535v.028c0 .772.367 1.47.941 2.237 5.006 5.132 7.831 10.784 8.088 16.354a24.48 24.48 0 0 1-.099 3.358c.319 1.251 1.304 2.005 2.244 2.313 1.171.382 2.814.256 3.915-1.248a70.763 70.763 0 0 0 7.177-12.194 26.771 26.771 0 0 0 1.435-3.87c-.436-.568-2.557-3.195-6.215-5.617-.431.187-3.043 1.281-5.356 1.413-1.154.066-2.637.104-3.153-.086l.637-1.664s-.021-.011-.075-.024c.021.005.532.111 2.485-.001 1.215-.069 2.581-.47 3.54-.806-4.768-2.703-6.467-3.1-6.484-3.104a.893.893 0 0 1-.689-1.054.9.9 0 0 1 1.059-.686c.197.04 2.075.47 7.406 3.525 3.615 2.071 6.077 4.479 7.363 5.919Zm-17.505 33.963a25.738 25.738 0 0 0 6.033-3.767c2.493-2.1 4.311-4.553 5.036-5.602l-2.723-3.327c-.952 1.219-2.5 3.174-3.592 4.422-2.883 3.299-6.202 5.675-6.342 5.775a.941.941 0 0 1-.18.1 10.82 10.82 0 0 1-.552.382l2.32 2.017Zm-.186-5.915c1.081-.937 2.374-2.151 3.568-3.517.731-.836 1.693-2.025 2.529-3.079a5.486 5.486 0 0 1-2.023-.268 5.344 5.344 0 0 1-2.045-1.214c-.523 3.064-1.362 6.007-2.029 8.078Zm-2.623 2.057c.453-1.217 2.625-7.269 3.196-12.838a5.374 5.374 0 0 1-.088-1.076c.032-1.718-.092-3.36-.374-4.877-1.037-5.575-4.143-9.207-5.998-11.378-.328-.382-.62-.725-.864-1.03l-.229-.293a44.39 44.39 0 0 0-5.139-4.453c-7.568-5.64-11.186-5.29-12.925-5.121l-.253.023c-.449.04-1.264.288-2.126.55-2.241.684-5.31 1.618-7.575.735-2.09-.815-2.278-2.891-2.46-4.899-.131-1.44-.266-2.929-1.049-4.09-1.679-2.487-5.998-1.233-8.285-.1-.904.447-1.584.999-2.184 1.485-1.027.835-2.09 1.697-3.692 1.302-1.024-.252-1.685-.949-2.325-1.622-.812-.855-1.513-1.593-2.963-1.559-1.437.034-1.59.434-1.867 1.159-.185.486-.417 1.09-1.023 1.537-1.078.797-1.991.342-2.658.01-.478-.239-.929-.464-1.604-.453-.847.012-2.221 1.3-3.174 2.46 1.077.904 2.986 3.016 5.125 7.715 1.22 2.682 1.469 4.71 1.733 6.856.411 3.357.878 7.16 5.405 14.875 5.318 9.062 12.076 12.903 16.115 15.197.518.295.987.562 1.394.806.326.196 1.083.557 1.691.846.442.211.85.406 1.1.537 3.776 1.99 8.768 2.835 14.855 2.519-4.561-1.331-11.342-4.049-17.643-9.429-10.565-9.018-16.329-26.538-16.569-27.28a.886.886 0 0 1 .588-1.116.907.907 0 0 1 1.136.577c.055.168 5.297 16.095 14.558 25.13.587-1.751 1.763-5.817 1.105-8.645a141.57 141.57 0 0 0-.754-3.054c-.561-2.194-.966-3.779-1.04-5.645l-.001-.035c0-.475.383-.869.87-.888a.898.898 0 0 1 .939.854c.064 1.601.417 3.046.911 4.984l1.692-1.732a.917.917 0 0 1 1.28-.026c.36.341.372.903.026 1.257l-2.482 2.541c.104.425.213.874.323 1.35.897 3.868-1.027 9.315-1.42 10.365l.025.021c3.381 2.887 6.94 4.98 10.188 6.489-1.313-2.37-3.006-6.24-1.755-8.703.831-1.636 2.325-2.881 3.771-4.085 1.58-1.317 3.072-2.56 3.633-4.189a.91.91 0 0 1 1.148-.557.885.885 0 0 1 .567 1.127c-.722 2.096-2.479 3.559-4.178 4.975-.617.514-1.219 1.015-1.755 1.531 1.176.373 3.399.995 5.215 1.015 2.585.028 6.245-1.24 6.282-1.252a.91.91 0 0 1 1.156.539.885.885 0 0 1-.549 1.136c-.162.057-3.999 1.388-6.909 1.356-2.555-.028-5.638-1.048-6.451-1.334-.115.174-.218.35-.31.531-1.126 2.219 1.762 7.315 2.863 8.925a.847.847 0 0 1 .099.191c5.15 2.008 8.969 2.496 9.036 2.504a.187.187 0 0 0 .025.004c8.19-1.226 11.853-3.678 12.621-4.255Zm-5.71-35.206a23.232 23.232 0 0 1 1.597-7.868c1.178-2.99 1.46-5.113.841-6.308-.344-.666-1.014-1.122-2.048-1.394a47.128 47.128 0 0 0-2.535-.58c-1.882-.39-3.507-.729-5.255-1.915-1.475-1.002-1.109-2.398-.89-3.232.094-.361.202-.77.108-.91-.038-.057-.292-.354-1.559-.558-2.17-.349-4.405.321-6.201.86-1.666.499-2.87.86-3.769.367a1.633 1.633 0 0 1-.798-1.044c-.274-1.023.01-1.887.238-2.58.318-.973.396-1.205-.561-1.754-.815-.466-1.871-.43-2.988-.392-1.721.059-3.835.131-5.351-1.843-1.191.646-5.25 2.996-8.43 6.561-3.346 3.752-5.904 8.732-6.502 9.94.068.03.137.054.208.072.659.162 1.052-.1 2.099-.949.64-.52 1.437-1.166 2.521-1.703 3.503-1.734 8.384-2.59 10.609.706 1.037 1.537 1.199 3.332 1.343 4.915.173 1.912.32 3.012 1.326 3.404 1.671.652 4.387-.175 6.371-.78.998-.304 1.86-.566 2.5-.623l.237-.022c1.969-.191 6.064-.588 14.197 5.474a49.481 49.481 0 0 1 2.692 2.156Z" fill="#DFE2EB"/></svg>