<svg width="307" height="101" fill="none" xmlns="http://www.w3.org/2000/svg"><path fill-rule="evenodd" clip-rule="evenodd" d="m14.553 44.446 5.97-6.55 12.853 22.471h17.248L30.225 26.701 50.624 0H32.63L19.61 18.948l-5.058 7.67V0H0v60.367h14.553v-15.92Zm63.062 11.9c.387 1.769.83 3.11 1.327 4.021h13.972v-.705c-1.216-2.183-1.852-5.334-1.907-9.453V30.35c-.083-4.864-1.783-8.692-5.1-11.484-3.317-2.792-7.836-4.188-13.557-4.188-5.722 0-10.435 1.355-14.139 4.063-3.676 2.71-5.514 6.233-5.514 10.573h13.972c0-3.262 1.659-4.892 4.976-4.892 3.565 0 5.348 2.059 5.348 6.177v2.364h-4.312c-6.855 0-12.079 1.243-15.672 3.731-3.593 2.488-5.39 6.164-5.39 11.029 0 3.87 1.479 7.09 4.436 9.66 2.958 2.543 6.551 3.815 10.78 3.815 4.616 0 8.21-1.617 10.78-4.851Zm-3.11-6.22c-1.133.747-2.57 1.12-4.311 1.12-1.327 0-2.419-.387-3.276-1.161-.857-.802-1.285-1.838-1.285-3.11 0-4.367 2.432-6.55 7.297-6.55h4.063v7.172c-.497.94-1.327 1.783-2.487 2.53ZM140.43 38.27c0 6.965-1.576 12.535-4.727 16.708-3.123 4.146-7.352 6.22-12.687 6.22-4.119 0-7.505-1.507-10.158-4.52v20.938H98.885V15.506h13.06l.414 4.146c2.682-3.316 6.206-4.975 10.573-4.975 5.528 0 9.826 2.046 12.894 6.136 3.068 4.064 4.603 9.66 4.603 16.792v.664Zm-13.973-.871c0-7.96-2.322-11.94-6.965-11.94-3.317 0-5.528 1.188-6.634 3.565v17.662c1.216 2.488 3.455 3.732 6.717 3.732 4.45 0 6.744-3.842 6.882-11.526v-1.493Zm34.91 23.798c5.031 0 9.025-1.893 11.983-5.68l.414 4.851h13.102v-44.86H172.81v31.468c-1.355 2.294-3.635 3.442-6.841 3.442-3.732 0-5.598-1.921-5.598-5.764V15.507h-13.972v29.065c0 5.362 1.258 9.48 3.773 12.355 2.543 2.847 6.274 4.27 11.194 4.27Zm56.678-13.433c0-1.188-.622-2.142-1.866-2.86-1.244-.72-3.607-1.466-7.09-2.24-3.483-.773-6.357-1.782-8.624-3.026-2.266-1.272-3.994-2.806-5.182-4.602-1.189-1.797-1.783-3.856-1.783-6.178 0-4.119 1.7-7.505 5.099-10.158 2.855-2.252 6.451-3.558 10.787-3.919V4.592h6.66v10.321c4.055.493 7.444 1.755 10.166 3.786 3.594 2.681 5.39 6.205 5.39 10.572h-14.013c0-3.593-1.894-5.39-5.681-5.39-1.465 0-2.695.415-3.69 1.244-.995.802-1.492 1.81-1.492 3.027 0 1.244.608 2.253 1.824 3.027 1.216.774 3.151 1.41 5.805 1.907 2.681.497 5.03 1.092 7.048 1.783 6.744 2.322 10.116 6.481 10.116 12.48 0 4.09-1.824 7.421-5.472 9.992-2.724 1.933-6.058 3.14-10.001 3.619v10.23h-6.66V61.088c-2.82-.244-5.393-.899-7.718-1.966-3.013-1.382-5.363-3.261-7.049-5.638s-2.529-4.879-2.529-7.505h13.06c.056 2.073.747 3.594 2.073 4.561 1.327.94 3.027 1.41 5.1 1.41 1.907 0 3.331-.387 4.27-1.161.968-.774 1.452-1.783 1.452-3.027Zm36.319-32.257V4.353h-13.972v11.153h-5.722v9.702h5.722v22.265c0 4.616 1.147 8.057 3.441 10.324 2.295 2.266 5.846 3.4 10.656 3.4 2.736 0 5.362-.401 7.877-1.203v-9.992c-.939.166-2.1.249-3.482.249-1.797 0-2.999-.332-3.607-.995-.608-.664-.913-1.838-.913-3.525V25.208h7.381v-9.702h-7.381Zm38.186 44.861c-.497-.912-.94-2.252-1.327-4.021-2.57 3.234-6.164 4.85-10.78 4.85-4.229 0-7.822-1.271-10.779-3.814-2.958-2.57-4.437-5.79-4.437-9.66 0-4.865 1.797-8.541 5.39-11.029 3.594-2.488 8.818-3.731 15.672-3.731h4.312v-2.364c0-4.118-1.782-6.177-5.348-6.177-3.317 0-4.975 1.63-4.975 4.892h-13.973c0-4.34 1.838-7.864 5.515-10.573 3.703-2.708 8.416-4.063 14.138-4.063 5.721 0 10.241 1.396 13.558 4.188 3.316 2.792 5.016 6.62 5.099 11.485v19.86c.056 4.118.691 7.269 1.907 9.452v.705h-13.972Zm-8.748-9.121c1.741 0 3.179-.373 4.312-1.12 1.161-.746 1.99-1.589 2.487-2.529v-7.172h-4.063c-4.865 0-7.297 2.183-7.297 6.55 0 1.272.429 2.308 1.285 3.11.857.774 1.949 1.16 3.276 1.16Z" fill="#000"/><path d="M60.435 93.912c0-.443-.156-.781-.468-1.016-.313-.24-.875-.49-1.688-.75-.812-.265-1.455-.526-1.93-.78-1.291-.699-1.937-1.639-1.937-2.821 0-.615.172-1.162.516-1.64.349-.485.846-.863 1.492-1.134.651-.27 1.38-.406 2.187-.406.813 0 1.537.148 2.172.445.636.292 1.128.706 1.477 1.243.354.536.531 1.145.531 1.828h-2.344c0-.521-.164-.925-.492-1.211-.328-.292-.789-.438-1.383-.438-.573 0-1.018.123-1.336.368-.317.24-.476.557-.476.953 0 .37.185.68.554.93.375.25.925.484 1.649.702 1.333.401 2.305.899 2.914 1.493.61.593.914 1.333.914 2.218 0 .985-.372 1.758-1.117 2.32-.745.558-1.748.837-3.008.837-.875 0-1.672-.16-2.39-.477-.72-.323-1.269-.763-1.649-1.32-.375-.558-.563-1.203-.563-1.938h2.352c0 1.255.75 1.883 2.25 1.883.557 0 .992-.112 1.305-.336.312-.23.468-.547.468-.953Zm9.888-8.39 2.922 8.25 2.906-8.25h3.079v11.374h-2.352v-3.109l.234-5.367-3.07 8.476h-1.61l-3.062-8.468.235 5.359v3.11H67.26V85.52h3.062Zm20.396 9.03h-4.11l-.78 2.344h-2.493l4.234-11.375h2.172L94 96.896h-2.492l-.789-2.343Zm-3.477-1.898h2.844l-1.43-4.258-1.414 4.258Zm14.912.078h-1.868v4.164h-2.343V85.521h4.226c1.344 0 2.381.3 3.11.899.729.599 1.093 1.445 1.093 2.539 0 .776-.169 1.424-.507 1.945-.334.516-.842.927-1.524 1.234l2.461 4.649v.11h-2.516l-2.132-4.165Zm-1.868-1.898h1.891c.589 0 1.044-.149 1.367-.446.323-.302.485-.716.485-1.242 0-.536-.154-.958-.461-1.265-.302-.308-.768-.461-1.399-.461h-1.883v3.414Zm18.927-3.414h-3.484v9.476h-2.344V87.42h-3.437V85.52h9.265v1.899Zm17.463 4.828h-4.5v4.648h-2.343V85.521h7.406v1.899h-5.063v2.937h4.5v1.89Zm7.295 4.648h-2.344V85.521h2.344v11.375Zm14.309 0h-2.344l-4.562-7.484v7.484h-2.344V85.521h2.344l4.57 7.5v-7.5h2.336v11.375Zm11.49-2.343h-4.11l-.781 2.343h-2.492l4.234-11.375h2.172l4.258 11.375h-2.492l-.789-2.343Zm-3.477-1.899h2.844l-1.43-4.258-1.414 4.258Zm19.95 4.242H183.9l-4.563-7.484v7.484h-2.344V85.521h2.344l4.57 7.5v-7.5h2.336v11.375Zm13.857-3.789c-.089 1.224-.542 2.188-1.359 2.89-.813.704-1.886 1.056-3.219 1.056-1.459 0-2.607-.49-3.446-1.47-.833-.983-1.25-2.332-1.25-4.046v-.695c0-1.094.193-2.058.579-2.891.385-.833.935-1.471 1.648-1.914.719-.448 1.552-.672 2.5-.672 1.313 0 2.37.352 3.172 1.055s1.266 1.69 1.391 2.96h-2.344c-.057-.734-.263-1.265-.617-1.593-.349-.333-.883-.5-1.602-.5-.781 0-1.367.281-1.758.844-.385.557-.583 1.424-.594 2.601v.86c0 1.229.185 2.127.555 2.695.375.568.964.851 1.766.851.724 0 1.263-.163 1.617-.492.359-.333.565-.846.617-1.539h2.344Zm11.263-1.14h-4.5v3.046h5.281v1.883h-7.625V85.521h7.609v1.899h-5.265v2.71h4.5v1.837Z" fill="#52555F"/></svg>