<?xml version="1.0" encoding="utf-8"?>
<!-- Generator: Adobe Illustrator 25.2.0, SVG Export Plug-In . SVG Version: 6.00 Build 0)  -->
<svg version="1.1" id="Layer_1" xmlns="http://www.w3.org/2000/svg" xmlns:xlink="http://www.w3.org/1999/xlink" x="0px" y="0px"
	 viewBox="0 0 512 512" style="enable-background:new 0 0 512 512;" xml:space="preserve">
<style type="text/css">
	.st0{fill:#FF6633;}
</style>
<g>
	<path class="st0" d="M246.5,469.9c-6.5,0-13.3-0.3-20.3-0.9c-36.6-3-60.2-10.8-73.6-16.9c0,0,0,0-0.1,0h-0.1l-11.6,10.3
		c-2.2,2-5.1,3.1-8.1,3.1c-1.5,0-2.9-0.3-4.3-0.8c-0.8-0.3-18.7-7.1-36.9-22.7c-17.6-15-28.5-32.4-29.7-34.3
		c-2.7-4.4-2.4-10.1,0.9-14.1l12.9-16c0,0,0-0.1,0-0.2c-13.6-19.2-25.4-39.7-35-61c-9-19.8-13.5-40.4-13.5-61.2
		c0-19.6,4-39.6,11.9-59.5c2.2-5.6,4.8-11.3,7.7-17c0.3-0.8,0.7-1.5,1.1-2.2c12.3-23.2,29.9-45.7,49.6-63.4
		c42.3-37.9,93.1-44,117.6-47c3.1-0.4,6.7-0.6,11-0.6c5.2,0,10.6,0.3,16.3,0.5c6.2,0.3,12.6,0.6,19.1,0.6c10.8,0,19.2-0.9,26.3-2.7
		c14.8-3.9,23.3-11.7,27.9-16c3.2-2.9,6.4-5.9,11.7-5.9c0.5,0,1,0,1.5,0.1c3.6,0.4,6.9,2.4,9,5.4c3.8,5.4,10.8,25.5-1.3,38.6
		c-1.7,1.8-1.9,2.5-3,5.7c-0.6,1.8-1.4,4.1-2.6,6.8c0,0.1,0,0.1,0,0.2c2.1,1.3,4.4,2.9,7.2,4.8c8.5,5.8,20.9,15.3,31.5,27.4
		c12.2,13.9,22.1,30.3,28.4,41.7c0,0,0,0.1,0.1,0.1l0,0c0,0,0,0,0.1,0c5.1-3.3,10.9-5,17.1-5c0.3,0,0.6,0,0.9,0
		c11.2,0.3,19,4.7,23,13.3l0.1,0.1l0,0c3.7-1.5,7.3-2.2,11.1-2.2h0.5c14.4,0.2,26.9,16.1,31.6,22.9c2,2.9,2.6,6.5,1.8,10
		c-0.8,3.3-3,6.1-6,7.8c-1,0.7-10.3,7.5-21.9,33.4c-4.9,11-5.9,19.1-7.1,29.2c-2.2,18.3-4.7,38.9-28.5,80.2
		c-28.2,48.9-65,70.1-84.8,81.6l-0.3,0.2c-2.4,1.4-4.4,2.5-6.2,3.6c-2.2,1.4-5.8,3.1-9.5,4.9l-0.4,0.2c-1.9,0.9-3.6,1.8-4.6,2.3
		C296.8,464.9,273.7,469.9,246.5,469.9z M248.9,232.6c-13.4,0-31,8.1-52.2,24.2c-8.8,6.7-16.8,13.7-23.9,21
		c-0.3,0.4-0.6,0.8-0.9,1.2c-1.3,1.6-2.8,3.4-4.4,5.3c-8.6,10.2-22.9,27.2-27.6,52.8c-1.3,7-1.8,14.6-1.7,22.7
		c0,1.9-0.1,3.9-0.4,5.7c2.5,23.6,10.8,48.8,14.2,58.5c5.7,3.8,22.3,13,55.1,18.2c4.2-0.6,19.2-3.3,38.8-10.8
		c6.9-10.6,12.7-24.4,13.3-31.5v-0.1h-0.1l0,0c-6.9,2-17.1,4.4-26.2,4.5h-0.6c-15.6,0-35.1-6.9-35.9-7.2c-3.1-1.1-5.6-3.3-7-6.3
		s-1.6-6.3-0.5-9.4c1.7-4.9,6.4-8.2,11.6-8.2c1.4,0,2.8,0.2,4.1,0.7c0.7,0.2,16.7,5.8,27.6,5.8h0.3c2.5,0,5.5-0.4,9-1
		c0,0,0.1,0,0.1-0.1v-0.1c-7.6-6.5-16.1-14.5-19.9-25.7c-1.1-3.1-0.8-6.5,0.6-9.4c1.5-2.9,4-5.1,7.1-6.2c1.3-0.4,2.6-0.6,3.9-0.6
		c5.3,0,10,3.4,11.6,8.3c2,6,8.5,11.5,15.4,17.3c7.3,6.2,15.6,13.2,20.4,22.8c3.7,7.5,3.9,17.2,0.5,28.9v0.1c0,0,0,0,0.1,0
		c0,0,0,0,0.1,0c8.6-5.2,16.8-10.9,24.3-17.2c0,0,0.1-0.1,0-0.1c-3.7-11.4-9.3-33.2-5.4-50.6c0.2-0.9,0.4-1.7,0.6-2.5v-0.1L292,334
		c-4.7-4.9-4.5-12.7,0.4-17.4c2.3-2.2,5.3-3.4,8.5-3.4c2.4,0,4.8,0.7,6.8,2.1c0,0,0,0,0.1,0l0,0l0.1-0.1c0.6-3.3,0.9-6.3,1-9.2
		c0.3-6.6,5.6-11.8,12.3-11.8c0.2,0,0.3,0,0.5,0c6.6,0.2,11.8,5.6,11.8,12.3c0,0.2,0,0.3,0,0.5c-0.4,10.1-2.6,18.7-5.3,29.6
		c-1.1,4.4-2.3,9.3-3.6,15c-1.3,5.9-0.8,14.9,1.5,25.2c0,0,0,0.1,0.1,0.1l0,0h0.1c37.9-44.3,59.4-110.6,59.6-111.3
		c1.6-5.1,6.3-8.6,11.7-8.6c1.3,0,2.5,0.2,3.7,0.6c6.4,2,10,9,8,15.4c-1.2,3.8-30,92.8-83.3,139c-12.4,10.8-26.2,20.3-41,28.4
		c-0.1,0-0.1,0.1-0.1,0.2l0.1,0.1l0,0c6.7-1.9,12.9-4.3,18.4-7.2c1.4-0.7,3.5-1.7,5.7-2.8c2.4-1.1,6.3-3.1,7.6-3.8
		c2-1.2,4.4-2.6,6.9-4l0.1-0.1c19-11,50.9-29.4,75.8-72.6c21.3-36.9,23.5-54.9,25.4-70.9c1.3-10.8,2.6-21.9,9.1-36.3
		c6.7-15,13.9-26.9,21.3-35.3c0,0,0-0.1,0-0.2c-2.4-2.3-4.2-3.6-5.1-4c-1.1,0.1-1.9,0.4-3.8,1.4c-2.4,1.2-5.9,3-10.5,3
		c-3.8,0-7.4-1.3-10.8-3.8c-4.8-3.6-6.6-8.3-7.6-11.2l-0.2-0.5l-0.1-0.1c-0.5-0.1-1-0.1-1.7-0.1h-0.3c-3.2,0-4.5,1.3-8.2,5.2
		c-3.5,3.8-7.9,8.5-15.2,10.3c-1.9,0.5-3.8,0.7-5.7,0.7c-8.6,0-14.5-4.9-19.2-8.8c-2.7-2.3-5.6-4.6-9.2-6.4
		c-5.6-2.8-14.1-5.8-21.2-5.8c-6.8,0-8.6,2.7-9.2,3.6c-2.7,4.1-3.3,10.2-3.8,16.6c-0.9,10.6-2.2,25.1-17,30.9
		c-3.9,1.6-8.4,2.3-13.4,2.3c-10.2,0-20.5-3.2-28.9-5.8c-2.9-0.9-7.4-2.3-8.8-2.4l-1.3-0.1C252.8,232.7,251,232.6,248.9,232.6z
		 M91,397.8C91,397.8,90.9,397.9,91,397.8l-3.2,4c0,0,0,0.1,0,0.2c4.3,5.7,11.2,14.1,19.8,21.5c8.3,7.1,16.6,12,22.2,14.9
		c0,0,0,0,0.1,0c0,0,0.1,0,0.1-0.1s0-0.1,0-0.2c-5.8-4.6-17-14.2-27.2-26C99.7,408.7,95.8,403.9,91,397.8
		C91.1,397.9,91,397.8,91,397.8L91,397.8z M80.3,271.4C80.2,271.4,80.2,271.4,80.3,271.4c-11.4,8.2-19,16.4-22.6,20.6v0.1
		c1.5,4.8,3.3,9.5,5.4,14.2c9.4,20.7,20.9,40.6,34.3,59.2c1.9,2.6,4.2,3.8,7.1,3.8c1.1,0,2.1-0.2,3.1-0.5c1.2-0.4,4.2-1.7,5.5-4.8
		c-0.5-5.8-0.6-11.2-0.4-16.2c1.3-29.3,15.6-59,41.3-85.9c1.9-2.7,2.8-4.5,2.8-6.1v-0.1c-0.1-8.1-1.3-20.7-6.7-34.6
		c-5.8-15-7.9-26.9-6.3-36.2c0-0.1,0-0.1-0.1-0.1l0,0c0,0-0.1,0-0.1,0.1c-0.2,0.5-0.5,1.1-0.8,1.6c-2.2,3.7-6.2,6-10.6,6
		c-2,0-4.1-0.5-5.9-1.5c-0.8-0.3-8.1-3.3-27.6-3.7c-0.7,0-1.3,0-2,0c-14.3,0-24.4,3.3-29.2,5.3c-11.4,23.3-16.5,46.8-15.4,69.7
		c0,0,0,0.1,0.1,0.1l0,0h0.1c7.9-7.1,16.7-13.5,25.9-18.9c25.9-15.1,36.1-17.9,38.6-18.4c0.8-0.2,1.6-0.2,2.4-0.2
		c5.7,0,10.8,4.1,12,9.7c1.4,6.5-2.7,13-9.2,14.5c-0.3,0.1-3.2,0.9-9.5,3.9c-0.1,0-0.1,0.1-0.1,0.1l0.1,0.1h0.7c2,0,2.9-0.1,3.2-0.1
		c0.5-0.1,1-0.1,1.5-0.1c4.2,0,7.7,3.3,7.9,7.5l5,13.4l-7.4,2.8c-2.2,0.8-5.3,1.2-10.1,1.2c-2.4,0-5.3-0.1-8.5-0.3
		C95.6,276.8,85.5,273.4,80.3,271.4L80.3,271.4z M227.2,148.5c-1.7,0-3.3,0.1-4.9,0.4c0,0-0.1,0-0.1,0.1v0.1
		c2,9.5-0.8,16.8-8.1,21.9c-9.8,6.8-18.9,8.7-28.5,10.7c-3.7,0.8-7.6,1.6-12,2.8c-1.9,0.5-4.3,1.4-5,2.9c-0.5,1-2.6,6.7,4.4,24.9
		c3.2,8.3,5.6,17.1,6.9,26.2c0,0,0,0.1,0.1,0.1l0,0h0.1c0.6-0.4,1.1-0.9,1.7-1.3c25.9-19.7,47.8-29.2,66.9-29.2c3.3,0,6,0.3,8,0.5
		l1.1,0.1c3.9,0.4,8.5,1.8,13.8,3.4c6.8,2.1,15.2,4.7,21.6,4.7c2.1,0,3.4-0.3,4.1-0.6c0.9-1.6,1.4-7.3,1.7-10.3
		c0.7-8.4,1.7-18.8,7.8-28.1c6.4-9.6,16.6-14.6,29.7-14.6c9.8,0,21.1,2.9,31.8,8.3c0,0,0,0,0.1,0h0.1v-0.1
		c-5.8-9.4-11.7-17.4-17.4-24c-11.7-13.4-26.2-23.2-33.8-27.8c0,0,0,0-0.1,0h-0.1c-7.7,6.4-16.7,7.2-22.9,7.2
		c-1.7,0-3.3-0.1-4.8-0.1c-1.5-0.1-2.8-0.1-4.1-0.1c-1.5,0-3.7,0.1-5.3,0.6c0,0-0.1,0-0.1,0.1v0.1c1.2,3.6,3.1,9.7,1.2,17
		c-1.1,4.4-3.9,7.9-7.7,10.1c-2.6,1.4-5.5,2.2-8.8,2.2c-4.8,0-9.9-1.5-15.7-3.3C242.3,150.9,234.6,148.5,227.2,148.5z M96.8,162.5
		c0.8,0,1.6,0,2.5,0c27,0.6,37.1,5.6,39.5,7.1c3.8,2.4,6,6.7,5.7,11.1c0,0.1,0,0.1,0.1,0.1l0,0c0.1,0,0.1,0,0.1-0.1
		c0.5-1.6,1.1-3.2,1.9-4.6c3.8-7.6,11-12.9,20.6-15.5c5-1.3,9.6-2.3,13.2-3.1c7.4-1.6,12.3-2.6,17.1-5.3l0.1-0.1
		c-0.9-3.4-2.7-10.5,1.8-17.4c4.6-7,13-9.2,18.9-10.1c2.8-0.5,5.8-0.7,8.8-0.7c10.2,0,19.8,2.6,27.9,5.1l0,0h0.1v-0.1
		c-1.7-9.7,2.2-17.3,11.7-22.8c6.6-3.8,13.5-4.3,18.7-4.3c1.7,0,3.4,0.1,4.9,0.1c1.2,0,2.6,0.1,3.9,0.1c6.2,0,7.4-1,9-3.5
		c4.5-7.2,5.8-11.1,7-14.6c0.3-0.7,0.5-1.5,0.8-2.3v-0.1H311c0,0,0,0-0.1,0c-5.3,2.7-10.9,4.8-16.8,6.3c-9.2,2.4-19.5,3.5-32.4,3.5
		c-7,0-13.7-0.3-20.3-0.6c-5.5-0.3-10.6-0.5-15.2-0.5c-3.3,0-5.9,0.1-8.1,0.4c-3.7,0.4-7.9,0.9-12.5,1.6c-0.1,0-0.1,0.1-0.1,0.1
		c0,0.1,0,0.1,0.1,0.1c4.6,1.7,7.7,5.9,8.1,10.7c0.4,6.8-4.7,12.6-11.4,13.1c-1.3,0.1-13.4,1-34.4,3.1c-4,0.4-7.9,0.6-11.6,0.6
		c-10.6,0-18.3-1.7-22.8-3l0,0c0,0,0,0-0.1,0c-6.9,4.3-13.4,9.2-19.3,14.5c-10.5,9.4-20,20-28.5,31.5v0.1l0.1,0.1l0,0
		C89.3,162.7,93,162.5,96.8,162.5z"/>
	<path class="st0" d="M327.4,42.2c0.5,0,1,0,1.5,0.1c3.6,0.4,6.8,2.3,8.9,5.3c3.8,5.4,10.7,25.4-1.3,38.4c-1.7,1.8-1.9,2.5-3.1,5.8
		c-0.6,1.8-1.4,4.1-2.6,6.8c0,0.1,0,0.2,0.1,0.3c2.1,1.3,4.4,2.9,7.2,4.8c8.5,5.8,20.9,15.3,31.5,27.4
		c12.2,13.9,22.1,30.3,28.3,41.7c0,0.1,0.1,0.1,0.2,0.1c0,0,0,0,0.1,0h0.1c5.1-3.3,10.8-5,17.1-5c0.3,0,0.6,0,0.9,0
		c11.3,0.3,18.8,4.6,22.9,13.2c0,0.1,0.1,0.1,0.2,0.1h0.1c3.6-1.5,7.3-2.2,11.1-2.2h0.5c14.3,0.2,26.8,16,31.5,22.8
		c2,2.9,2.6,6.5,1.8,9.9c-0.8,3.3-3,6.1-6,7.7c-1,0.7-10.3,7.5-21.9,33.4c-4.9,11-5.9,19.1-7.1,29.3c-2.2,18.2-4.7,38.9-28.5,80.1
		c-28.2,48.8-65,70.1-84.8,81.5l-0.2,0.1l-0.1,0.1c-2.4,1.4-4.4,2.5-6.2,3.6c-2.2,1.4-5.8,3.1-9.5,4.9l-0.3,0.2h-0.1
		c-1.8,0.9-3.6,1.7-4.5,2.2c-18.3,9.8-41.4,14.8-68.6,14.8c-6.5,0-13.3-0.3-20.3-0.9c-36.5-3-60.2-10.8-73.5-16.9h-0.1
		c-0.1,0-0.1,0-0.2,0.1l-11.6,10.3c-2.2,2-5.1,3.1-8.1,3.1c-1.5,0-2.9-0.3-4.3-0.8c-0.8-0.3-18.7-7.1-36.8-22.6
		c-17.6-15-28.4-32.4-29.6-34.3c-2.7-4.4-2.3-10,0.9-14l12.9-16c0.1-0.1,0.1-0.2,0-0.3c-13.6-19.2-25.3-39.7-35-61
		c-9-19.8-13.5-40.4-13.5-61.1c0-19.5,4-39.6,11.9-59.5c2.2-5.6,4.8-11.3,7.7-17c0.3-0.8,0.7-1.5,1.1-2.2
		c12.3-23.2,29.9-45.7,49.5-63.3c42.3-37.9,93.1-44,117.5-47c3.1-0.4,6.7-0.6,11-0.6c5.2,0,10.6,0.3,16.3,0.5
		c6.2,0.3,12.6,0.6,19.1,0.6c10.8,0,19.2-0.9,26.3-2.7c14.8-3.9,23.4-11.8,28-16C319,45.2,322.2,42.2,327.4,42.2 M261.6,91.1
		c-7,0-13.7-0.3-20.3-0.6c-5.5-0.3-10.6-0.5-15.2-0.5c-3.3,0-5.9,0.1-8.1,0.4c-3.7,0.4-7.9,0.9-12.6,1.6c-0.1,0-0.2,0.1-0.2,0.2
		s0.1,0.2,0.2,0.3c4.5,1.7,7.7,5.8,8,10.6c0.4,6.7-4.7,12.5-11.3,13c-1.3,0.1-13.4,1-34.4,3.1c-4,0.4-7.8,0.6-11.6,0.6
		c-10.6,0-18.2-1.7-22.8-3c0,0,0,0-0.1,0h-0.1c-6.9,4.3-13.4,9.2-19.3,14.5c-10.5,9.4-20,20-28.5,31.5c-0.1,0.1-0.1,0.2,0,0.3
		c0,0.1,0.1,0.1,0.2,0.1l0,0c3.6-0.4,7.4-0.5,11.2-0.5c0.8,0,1.6,0,2.5,0c27,0.6,37,5.6,39.5,7.1c3.8,2.4,6,6.6,5.7,11
		c0,0.1,0.1,0.2,0.2,0.3l0,0c0.1,0,0.2-0.1,0.2-0.2c0.5-1.6,1.1-3.1,1.9-4.6c3.8-7.5,10.9-12.9,20.5-15.4c5-1.3,9.6-2.3,13.2-3.1
		c7.4-1.6,12.3-2.6,17.2-5.4c0.1-0.1,0.1-0.2,0.1-0.3c-0.9-3.4-2.7-10.5,1.8-17.3c4.6-7,12.9-9.1,18.8-10.1c2.8-0.5,5.7-0.7,8.7-0.7
		c10.2,0,19.7,2.6,27.8,5.1c0,0,0,0,0.1,0s0.1,0,0.2-0.1c0.1-0.1,0.1-0.1,0.1-0.2c-1.7-9.6,2.2-17.2,11.6-22.7
		c6.6-3.8,13.4-4.3,18.6-4.3c1.7,0,3.4,0.1,4.9,0.1c1.2,0,2.6,0.1,3.9,0.1c6.2,0,7.4-1,9.1-3.6c4.5-7.2,5.8-11.1,7-14.6
		c0.3-0.7,0.5-1.5,0.8-2.3c0-0.1,0-0.2-0.1-0.3c0,0-0.1-0.1-0.2-0.1h-0.1c-5.3,2.7-10.9,4.8-16.8,6.3
		C284.8,90,274.5,91.1,261.6,91.1 M294.4,126.4c-1.7,0-3.3-0.1-4.8-0.1h-0.1c-1.4,0-2.8-0.1-4-0.1c-1.5,0-3.8,0.1-5.4,0.6
		c-0.1,0-0.1,0.1-0.1,0.1c0,0.1,0,0.1,0,0.2c1.2,3.6,3.1,9.6,1.2,16.9c-1.1,4.3-3.8,7.9-7.6,10c-2.6,1.4-5.5,2.1-8.7,2.1
		c-4.8,0-9.8-1.5-15.7-3.3c-6.8-2.1-14.5-4.4-21.9-4.4c-1.7,0-3.3,0.1-4.9,0.4c-0.1,0-0.2,0.2-0.2,0.3c1.9,9.4-0.8,16.7-8.1,21.8
		c-9.8,6.8-18.9,8.7-28.4,10.7c-3.7,0.8-7.6,1.6-12,2.8c-1.9,0.5-4.3,1.4-5.1,2.9c-0.5,1-2.6,6.8,4.4,25c3.2,8.3,5.6,17.1,6.9,26.1
		c0,0.1,0.1,0.2,0.2,0.2h0.1c0.1,0,0.1,0,0.2-0.1c0.6-0.4,1.1-0.9,1.7-1.3c25.9-19.6,47.8-29.2,66.8-29.2c3.3,0,6,0.3,8,0.5l1.1,0.1
		c3.9,0.4,8.5,1.8,13.8,3.4c6.8,2.1,15.2,4.7,21.6,4.7c2.1,0,3.5-0.3,4.2-0.6c0.1,0,0.1-0.1,0.1-0.1c0.9-1.6,1.4-7.1,1.6-10.3
		c0.7-8.3,1.7-18.7,7.8-28c6.3-9.5,16.6-14.6,29.6-14.6c9.8,0,21.1,2.9,31.8,8.3h0.1c0.1,0,0.1,0,0.2-0.1s0.1-0.2,0-0.3
		c-5.8-9.4-11.7-17.4-17.4-24c-11.7-13.4-26.2-23.2-33.8-27.8h-0.1c-0.1,0-0.1,0-0.2,0.1C309.5,125.7,300.5,126.4,294.4,126.4
		 M132.2,192.2c-2,0-4-0.5-5.8-1.5c-0.8-0.3-8.1-3.3-27.6-3.7c-0.7,0-1.3,0-2,0c-14.3,0-24.5,3.3-29.3,5.3c-0.1,0-0.1,0.1-0.1,0.1
		c-11.3,23.3-16.5,46.7-15.3,69.7c0,0.1,0.1,0.2,0.2,0.2h0.1c0.1,0,0.1,0,0.2-0.1c7.9-7.1,16.6-13.5,25.9-18.9
		c25.9-15.1,36-17.9,38.5-18.4c0.8-0.2,1.6-0.2,2.4-0.2c5.7,0,10.7,4,11.9,9.6c1.4,6.4-2.7,12.9-9.1,14.4c-0.3,0.1-3.2,0.9-9.5,3.9
		c-0.1,0-0.2,0.2-0.1,0.3c0,0.1,0.1,0.2,0.2,0.2c0.2,0,0.5,0,0.7,0c2,0,2.9-0.1,3.2-0.1c0.5-0.1,0.9-0.1,1.4-0.1
		c4.1,0,7.5,3.2,7.7,7.4v0.1l5,13.2l-7.3,2.7c-2.2,0.8-5.2,1.2-10.1,1.2c-2.4,0-5.3-0.1-8.5-0.3c-9.4-0.5-19.4-4-24.6-5.9h-0.1
		c-0.1,0-0.1,0-0.1,0c-11.3,8.1-19,16.4-22.5,20.6c-0.1,0.1-0.1,0.2,0,0.2c1.5,4.8,3.3,9.6,5.4,14.2c9.4,20.7,20.9,40.7,34.3,59.2
		c1.9,2.6,4.2,3.9,7.2,3.9c1.1,0,2.2-0.2,3.2-0.5c1.2-0.4,4.2-1.7,5.5-4.9v-0.1c-0.5-5.7-0.6-11.1-0.4-16.1
		c1.3-29.2,15.6-58.9,41.3-85.8c1.9-2.7,2.8-4.6,2.8-6.1v-0.1c-0.1-8.1-1.3-20.7-6.7-34.6c-5.8-15-7.9-26.8-6.3-36.2
		c0-0.1-0.1-0.2-0.2-0.3c0,0,0,0-0.1,0s-0.2,0.1-0.2,0.2c-0.2,0.5-0.5,1.1-0.8,1.6C140.5,190,136.5,192.2,132.2,192.2 M293.3,241.1
		c-10.2,0-20.5-3.2-28.8-5.8c-2.9-0.9-7.4-2.3-8.8-2.4l-1.3-0.1c-1.6-0.2-3.3-0.3-5.4-0.3c-13.5,0-31.1,8.1-52.3,24.2
		c-8.8,6.7-16.8,13.7-23.9,21c-0.3,0.4-0.6,0.8-0.9,1.2c-1.3,1.6-2.8,3.4-4.4,5.3c-8.6,10.2-22.9,27.2-27.6,52.9
		c-1.3,7-1.8,14.6-1.7,22.7c0,1.9-0.1,3.8-0.4,5.7c0,0,0,0,0,0.1c2.6,23.6,10.8,48.8,14.2,58.5c0,0.1,0.1,0.1,0.1,0.1
		c5.6,3.7,22.3,13,55.1,18.1l0,0l0,0c4.1-0.6,19.2-3.3,38.8-10.8l0.1-0.1c6.9-10.5,12.7-24.4,13.3-31.5c0-0.1,0-0.2-0.1-0.2
		c0,0-0.1-0.1-0.2-0.1c0,0,0,0-0.1,0c-6.9,2-17,4.4-26.2,4.5h-0.6c-15.6,0-35-6.9-35.8-7.2c-3.1-1.1-5.5-3.3-6.9-6.2
		c-1.4-2.9-1.6-6.2-0.5-9.3c1.7-4.8,6.3-8.1,11.5-8.1c1.4,0,2.8,0.2,4.1,0.7c0.7,0.2,16.7,5.8,27.7,5.8h0.3c2.5,0,5.5-0.4,9-1
		c0.1,0,0.2-0.1,0.2-0.2s0-0.2-0.1-0.3c-7.6-6.5-16-14.4-19.8-25.7c-1-3.1-0.8-6.4,0.6-9.3c1.4-2.9,3.9-5.1,7-6.1
		c1.3-0.4,2.6-0.6,3.9-0.6c5.2,0,9.9,3.3,11.5,8.3c2,6.1,8.5,11.5,15.4,17.4c7.3,6.2,15.6,13.2,20.3,22.7c3.7,7.5,3.9,17.2,0.5,28.9
		c0,0.1,0,0.2,0.1,0.3c0,0,0.1,0.1,0.2,0.1h0.1c8.6-5.2,16.8-11,24.3-17.2c0.1-0.1,0.1-0.2,0.1-0.3c-3.7-11.4-9.3-33.2-5.4-50.5
		c0.2-0.9,0.4-1.7,0.6-2.5c0-0.1,0-0.2-0.1-0.2l-9.1-9.5c-4.6-4.8-4.5-12.6,0.3-17.2c2.3-2.2,5.3-3.4,8.4-3.4c2.4,0,4.7,0.7,6.7,2
		h0.1h0.1c0.1,0,0.1-0.1,0.1-0.2c0.6-3.3,0.9-6.3,1-9.2c0.2-6.6,5.6-11.7,12.2-11.7c0.2,0,0.3,0,0.5,0c6.6,0.2,11.7,5.6,11.7,12.2
		c0,0.2,0,0.3,0,0.5c-0.4,10-2.6,18.7-5.3,29.6c-1.1,4.3-2.3,9.3-3.6,15c-1.4,5.9-0.8,14.9,1.5,25.3c0,0.1,0.1,0.2,0.2,0.2
		c0,0,0,0,0.1,0s0.1,0,0.2-0.1c37.9-44.3,59.4-110.7,59.7-111.3c1.6-5.1,6.3-8.5,11.6-8.5c1.3,0,2.5,0.2,3.7,0.6
		c6.4,2,9.9,8.9,7.9,15.3c-1.2,3.8-30,92.8-83.2,139c-12.4,10.8-26.2,20.3-41,28.4c-0.1,0.1-0.2,0.2-0.1,0.3c0,0.1,0.1,0.2,0.2,0.2
		c0,0,0,0,0.1,0c6.7-1.9,13-4.3,18.5-7.2c1.4-0.7,3.4-1.7,5.7-2.8c2.4-1.1,6.3-3.1,7.6-3.8c2.1-1.3,4.4-2.6,6.9-4l0.1-0.1
		c19.1-11,50.9-29.4,75.9-72.6c21.3-36.9,23.5-55,25.4-70.9c1.3-10.8,2.6-21.9,9.1-36.3c6.7-15,13.9-26.9,21.3-35.2
		c0.1-0.1,0.1-0.3,0-0.3c-2-1.9-4-3.5-5.1-4h-0.1l0,0c-1.1,0.1-1.9,0.4-3.8,1.4c-2.4,1.2-5.9,3-10.4,3c-3.8,0-7.4-1.3-10.7-3.8
		c-4.8-3.6-6.5-8.3-7.6-11.1l-0.2-0.5c0-0.1-0.1-0.1-0.2-0.2c-0.5-0.1-1-0.1-1.7-0.1h-0.3c-3.2,0-4.6,1.3-8.3,5.3
		c-3.5,3.8-7.9,8.5-15.1,10.3c-1.9,0.5-3.8,0.7-5.7,0.7c-8.6,0-14.4-4.8-19.2-8.7c-2.7-2.3-5.6-4.6-9.2-6.4
		c-5.6-2.8-14.1-5.8-21.2-5.8c-6.8,0-8.7,2.8-9.3,3.7c-2.7,4.1-3.3,10.2-3.9,16.7c-0.9,10.6-2.2,25-16.9,30.8
		C302.7,240.3,298.2,241.1,293.3,241.1 M129.8,438.5c0.1,0,0.2,0,0.2-0.1c0.1-0.1,0-0.3-0.1-0.3c-5.8-4.6-17-14.2-27.2-25.9
		c-3-3.4-6.8-8.2-11.6-14.3c0-0.1-0.1-0.1-0.2-0.1l0,0c-0.1,0-0.1,0-0.2,0.1l-3.1,3.9c-0.1,0.1-0.1,0.2,0,0.3
		c4.3,5.7,11.2,14.1,19.8,21.5c8.3,7.1,16.7,12,22.2,14.9C129.7,438.5,129.7,438.5,129.8,438.5 M327.4,42c-5.3,0-8.6,3-11.8,6
		c-4.6,4.2-13.1,12.1-27.9,16c-7.1,1.9-15.4,2.7-26.2,2.7c-6.4,0-12.8-0.3-19.1-0.6c-5.7-0.3-11.2-0.5-16.3-0.5
		c-4.3,0-7.9,0.2-11.1,0.6c-24.5,2.9-75.3,9.1-117.6,47c-19.7,17.6-37.3,40.1-49.6,63.4c-0.5,0.7-0.8,1.4-1.2,2.2
		c-2.9,5.7-5.5,11.4-7.7,17c-7.9,20-11.9,40-11.9,59.6c0,20.8,4.5,41.4,13.5,61.2c9.7,21.3,21.4,41.8,35,61l-12.9,16
		c-3.3,4.1-3.7,9.8-0.9,14.3c1.2,1.9,12.1,19.3,29.7,34.4c18.1,15.5,36.1,22.4,36.9,22.7c1.4,0.5,2.9,0.8,4.4,0.8l0,0
		c3,0,6-1.1,8.2-3.1l11.6-10.3c14.5,6.6,38,14,73.6,16.9c7,0.6,13.8,0.9,20.3,0.9c27.2,0,50.3-5,68.7-14.8c1-0.5,2.7-1.4,4.6-2.3
		l0.3-0.2c3.7-1.8,7.3-3.5,9.5-4.9c1.8-1.1,3.9-2.3,6.3-3.7l0.2-0.1c19.8-11.4,56.6-32.7,84.9-81.6c23.8-41.3,26.3-62,28.5-80.2
		c1.2-10.2,2.2-18.2,7.1-29.2c11.7-26.1,21.1-32.8,21.8-33.3c3-1.7,5.3-4.5,6.1-7.9c0.9-3.5,0.2-7.2-1.8-10.1
		c-4.7-6.8-17.3-22.7-31.7-22.9h-0.5c-4.6,0-8.3,1-11.2,2.2c-2.6-5.4-8.2-13-23.1-13.4c-0.3,0-0.6,0-0.9,0c-7.4,0-13,2.3-17.2,5
		c-6.1-11.2-16.2-27.8-28.4-41.8c-10.6-12.1-23-21.6-31.6-27.5c-2.7-1.9-5.1-3.4-7.2-4.8c1.2-2.8,2-5,2.6-6.8c1.1-3.2,1.3-3.9,3-5.7
		c12.2-13.1,5.1-33.3,1.3-38.7c-2.1-3-5.4-5-9.1-5.4C328.4,42,327.9,42,327.4,42L327.4,42z M261.6,91.4c12.9,0,23.2-1.1,32.5-3.5
		c6.4-1.7,12-3.9,16.9-6.3c-0.3,0.8-0.5,1.5-0.8,2.3c-1.2,3.5-2.5,7.4-7,14.6c-1.6,2.5-2.7,3.5-8.8,3.5c-1.3,0-2.7,0-3.9-0.1
		c-1.5-0.1-3.2-0.1-4.9-0.1c-5.3,0-12.2,0.5-18.8,4.3c-12.2,7.1-12.8,16.5-11.7,22.9c-7.4-2.3-17.3-5.1-27.9-5.1c-3,0-6,0.2-8.8,0.7
		c-5.9,1-14.4,3.1-19,10.2c-4.4,6.7-2.8,13.6-1.8,17.5c-4.8,2.7-9.7,3.8-17.1,5.3c-3.7,0.8-8.2,1.7-13.3,3.1
		c-9.7,2.6-16.8,8-20.7,15.5c-0.8,1.5-1.4,3-1.9,4.7c0.3-4.4-1.8-8.7-5.8-11.2c-2.4-1.5-12.5-6.6-39.6-7.1c-0.8,0-1.7,0-2.5,0
		c-3.8,0-7.5,0.2-11.2,0.5c8.4-11.4,18-22.1,28.5-31.4c5.9-5.3,12.4-10.2,19.3-14.5c4.9,1.5,12.5,3,22.8,3c3.7,0,7.6-0.2,11.6-0.6
		c21.1-2.2,33.1-3,34.4-3.1c6.8-0.5,12-6.4,11.5-13.2c-0.3-5-3.7-9.2-8.1-10.8c4.7-0.7,8.9-1.2,12.5-1.6c2.1-0.3,4.8-0.4,8.1-0.4
		c4.6,0,9.7,0.2,15.2,0.5C247.9,91.1,254.6,91.4,261.6,91.4L261.6,91.4z M294.4,126.7c6.5,0,15.3-0.9,23-7.2
		c8.2,5,22.3,14.7,33.8,27.8c6.6,7.5,12.5,16.1,17.4,23.9c-10.7-5.3-22.1-8.3-31.9-8.3c-13.1,0-23.4,5.1-29.8,14.7
		c-6.2,9.3-7.1,19.7-7.9,28.1c-0.3,3.1-0.8,8.7-1.6,10.2c-0.7,0.3-2,0.6-4.1,0.6l0,0c-6.4,0-14.8-2.6-21.5-4.7
		c-5.3-1.6-9.9-3.1-13.8-3.4l-1.1-0.1c-2-0.2-4.7-0.5-8-0.5c-19.1,0-41,9.6-67,29.2c-0.6,0.4-1.1,0.9-1.7,1.3
		c-1.2-7.8-3.3-16.8-7-26.2c-7-18.1-4.9-23.8-4.4-24.8c0.7-1.4,3.1-2.3,4.9-2.8c4.4-1.2,8.3-2,12-2.8c9.6-2,18.7-4,28.5-10.8
		c10-6.9,9.3-16.5,8.2-22l0,0c1.5-0.2,3.1-0.4,4.8-0.4c7.4,0,15.1,2.3,21.8,4.4c5.9,1.8,10.9,3.3,15.8,3.3c3.3,0,6.3-0.7,8.9-2.2
		c3.8-2.1,6.6-5.7,7.7-10.1c1.9-7.2,0.1-13.1-1.2-17c1.5-0.5,3.7-0.6,5.3-0.6c1.3,0,2.6,0,4.1,0.1
		C291.1,126.6,292.7,126.7,294.4,126.7L294.4,126.7z M132.2,192.5c4.4,0,8.4-2.3,10.7-6c0.3-0.5,0.6-1,0.8-1.6
		c-1.6,9.5,0.4,21.3,6.3,36.3c5.4,13.9,6.6,26.5,6.7,34.5v0.1c0,1.5-0.9,3.3-2.7,6c-25.7,26.9-40,56.7-41.3,86
		c-0.2,5-0.1,10.4,0.4,16.1c-1.3,3.1-4.1,4.4-5.4,4.8c-1,0.3-2.1,0.5-3.1,0.5c-2.9,0-5.2-1.2-7-3.8c-13.4-18.5-24.9-38.5-34.3-59.2
		c-2.1-4.6-3.9-9.4-5.4-14.2c3.8-4.5,11.4-12.6,22.5-20.6c5.6,2.2,15.5,5.4,24.7,6c3.2,0.2,6.1,0.3,8.5,0.3c4.9,0,7.9-0.4,10.2-1.2
		l7.5-2.8l-5.1-13.5c-0.2-4.2-3.7-7.6-8-7.6c-0.5,0-1,0-1.5,0.1c-0.2,0-1.2,0.1-3.1,0.1c-0.2,0-0.5,0-0.7,0c6.3-3,9.1-3.8,9.4-3.9
		c6.5-1.5,10.7-8.1,9.3-14.7c-1.2-5.7-6.3-9.8-12.1-9.8c-0.8,0-1.7,0.1-2.5,0.2c-2.5,0.5-12.7,3.3-38.6,18.4
		c-10.5,6.1-19.1,12.8-25.9,18.9c-1.1-22.7,4-46.4,15.3-69.6c4.8-2,15-5.3,29.2-5.3c0.6,0,1.3,0,2,0c19.6,0.4,26.9,3.4,27.5,3.7
		C128.1,191.9,130.2,192.5,132.2,192.5L132.2,192.5z M293.3,241.3c5,0,9.5-0.8,13.4-2.4c14.8-5.9,16.1-20.4,17-31.1
		c0.6-6.4,1.1-12.5,3.8-16.6c0.6-0.9,2.4-3.6,9.1-3.6c7.1,0,15.6,3,21.1,5.8c3.6,1.8,6.4,4.2,9.2,6.4c4.7,3.9,10.6,8.8,19.3,8.8
		c1.9,0,3.8-0.2,5.8-0.7c7.3-1.8,11.7-6.5,15.3-10.4c3.7-4,5-5.2,8.2-5.2h0.3c0.7,0,1.3,0.1,1.6,0.1c0.1,0.2,0.1,0.3,0.2,0.5
		c1.1,2.8,2.9,7.6,7.7,11.2c3.4,2.5,7,3.8,10.9,3.8c4.6,0,8.2-1.8,10.5-3c1.8-0.9,2.6-1.3,3.7-1.4c1,0.4,2.8,1.8,5,3.9
		c-6,6.7-13.4,17.7-21.3,35.3c-6.5,14.4-7.8,25.6-9.1,36.4c-1.9,15.9-4.1,33.9-25.4,70.8c-24.9,43.1-56.8,61.5-75.8,72.5
		c-2.5,1.5-4.9,2.8-7,4.1c-1.3,0.8-5.2,2.7-7.6,3.8c-2.2,1.1-4.3,2.1-5.7,2.8c-5.5,3-11.7,5.4-18.4,7.2
		c13.4-7.3,27.5-16.6,41.1-28.4c53.3-46.2,82.1-135.3,83.3-139.1c2.1-6.5-1.6-13.5-8.1-15.6c-1.2-0.4-2.5-0.6-3.8-0.6
		c-5.4,0-10.2,3.5-11.8,8.6c-0.2,0.7-21.8,67-59.6,111.3c-2.3-10.3-2.8-19.2-1.5-25.2c1.3-5.7,2.5-10.6,3.6-15
		c2.7-10.9,4.9-19.5,5.3-29.6c0-0.2,0-0.4,0-0.5c0-6.7-5.2-12.1-11.9-12.4c-0.2,0-0.3,0-0.5,0c-6.7,0-12.2,5.2-12.4,11.9
		c-0.1,3.1-0.5,6-1,9.2c-2-1.3-4.4-2.1-6.9-2.1c-3.2,0-6.3,1.2-8.6,3.5c-4.9,4.7-5.1,12.6-0.4,17.6l9.1,9.5
		c-0.2,0.8-0.4,1.7-0.6,2.5c-4,17.4,1.7,39.4,5.4,50.7c-7.6,6.2-15.7,12-24.3,17.1c3-10.1,3.7-20.5-0.5-29
		c-4.8-9.6-13.1-16.6-20.4-22.8c-6.8-5.8-13.3-11.3-15.3-17.3c-1.7-5-6.4-8.4-11.8-8.4c-1.4,0-2.7,0.2-4,0.7
		c-3.1,1.1-5.7,3.3-7.2,6.3s-1.7,6.3-0.6,9.5c3.8,11.1,12,19,19.9,25.8c-3.4,0.6-6.4,1-8.9,1h-0.3l0,0c-10.9,0-26.9-5.5-27.6-5.8
		c-1.3-0.5-2.7-0.7-4.2-0.7c-5.2,0-9.9,3.3-11.7,8.2c-1.1,3.1-1,6.5,0.5,9.5c1.4,3,3.9,5.3,7,6.4c0.8,0.3,20.3,7.2,35.9,7.2h0.6
		c9.1-0.1,19.2-2.5,26.2-4.5c-0.6,7.5-6.7,21.4-13.2,31.4c-19.8,7.6-35,10.2-38.8,10.8c-32.8-5.1-49.3-14.3-55-18.1
		c-3.1-8.9-11.6-34.6-14.2-58.4c0.3-1.9,0.4-3.8,0.4-5.7c-0.1-8.1,0.4-15.7,1.7-22.6c4.7-25.6,19-42.6,27.5-52.8
		c1.6-1.9,3.1-3.7,4.4-5.3c0.3-0.4,0.6-0.8,0.9-1.2c7-7.2,15.1-14.3,23.8-20.9c21.2-16,38.7-24.2,52.1-24.2c2.1,0,3.8,0.2,5.4,0.3
		l1.3,0.1c1.4,0.1,5.8,1.5,8.7,2.4C272.7,238.1,283.1,241.3,293.3,241.3L293.3,241.3z M129.8,438.2c-5.7-2.9-13.9-7.8-22.2-14.9
		c-8.6-7.4-15.5-15.7-19.8-21.4L91,398c4,5.1,8.2,10.3,11.6,14.3C112.6,423.9,123.5,433.2,129.8,438.2L129.8,438.2z"/>
</g>
</svg>
